<?xml version="1.0" encoding="utf-8"?>
<!-- Generator: Adobe Illustrator 19.0.0, SVG Export Plug-In . SVG Version: 6.00 Build 0)  -->
<svg version="1.1" id="Layer_2" xmlns="http://www.w3.org/2000/svg" xmlns:xlink="http://www.w3.org/1999/xlink" x="0px" y="0px"
	 width="59.37px" height="59.59px" viewBox="0 0 59.37 59.59" style="enable-background:new 0 0 59.37 59.59;" xml:space="preserve"
	>
<style type="text/css">
	.st0{fill-rule:evenodd;clip-rule:evenodd;fill:#8431A6;}
	.st1{fill-rule:evenodd;clip-rule:evenodd;fill:#FFFFFF;}
	
		.st2{fill-rule:evenodd;clip-rule:evenodd;fill:#FFFFFF;stroke:#8431A6;stroke-width:0.2824;stroke-linejoin:bevel;stroke-miterlimit:22.9256;}
	
		.st3{fill-rule:evenodd;clip-rule:evenodd;fill:#FFFFFF;stroke:#8431A6;stroke-width:0.2823;stroke-linejoin:bevel;stroke-miterlimit:22.9256;}
	
		.st4{fill-rule:evenodd;clip-rule:evenodd;fill:none;stroke:#8431A6;stroke-width:0.2824;stroke-linejoin:bevel;stroke-miterlimit:22.9256;}
	.st5{fill-rule:evenodd;clip-rule:evenodd;fill:#8431A6;stroke:#8431A6;stroke-width:0.1007;stroke-miterlimit:10;}
	
		.st6{fill-rule:evenodd;clip-rule:evenodd;fill:#FFFFFF;stroke:#856C89;stroke-width:0.282;stroke-linejoin:bevel;stroke-miterlimit:22.9256;}
	
		.st7{fill-rule:evenodd;clip-rule:evenodd;fill:#FF5000;stroke:#8431A6;stroke-width:0.4215;stroke-linejoin:round;stroke-miterlimit:22.9256;}
	.st8{fill-rule:evenodd;clip-rule:evenodd;fill:none;stroke:#8431A6;stroke-width:0.1007;stroke-miterlimit:10;}
	.st9{fill-rule:evenodd;clip-rule:evenodd;fill:none;stroke:#8431A6;stroke-width:0.0609;stroke-miterlimit:22.9256;}
	
		.st10{fill-rule:evenodd;clip-rule:evenodd;fill:none;stroke:#FFFFFF;stroke-width:0.3995;stroke-linejoin:bevel;stroke-miterlimit:22.9256;}
	.st11{fill:#8431A6;}
</style>
<g>
	<path class="st0" d="M29.52,58.12c15.5,0,28.14-12.64,28.14-28.14S45.02,1.84,29.52,1.84S1.38,14.48,1.38,29.98
		S14.02,58.12,29.52,58.12z"/>
	<path class="st1" d="M29.52,51.87c12.06,0,21.89-9.83,21.89-21.89c0-12.06-9.83-21.89-21.89-21.89c-12.06,0-21.89,9.83-21.89,21.89
		C7.63,42.04,17.46,51.87,29.52,51.87z"/>
	<g>
		<polygon class="st2" points="28.47,33.27 26.85,35.2 27.67,33.93 29.29,32 		"/>
		<polygon class="st2" points="28.47,33.27 26.85,35.2 27.67,33.93 29.29,32 		"/>
		<polygon class="st3" points="30.47,34.32 28.86,36.25 28.85,36.24 28.84,36.24 30.46,34.31 30.46,34.31 		"/>
		<polygon class="st3" points="30.47,34.32 28.86,36.25 28.85,36.24 28.84,36.24 30.46,34.31 30.46,34.31 		"/>
		<polygon class="st3" points="30.48,34.34 28.86,36.27 28.86,36.27 28.86,36.25 30.47,34.32 30.48,34.34 		"/>
		<polygon class="st3" points="30.48,34.34 28.86,36.27 28.86,36.27 28.86,36.25 30.47,34.32 30.48,34.34 		"/>
		<polygon class="st3" points="31.59,35.55 29.97,37.48 29.96,37.46 29.96,37.46 31.58,35.53 31.58,35.53 		"/>
		<polygon class="st3" points="31.59,35.55 29.97,37.48 29.96,37.46 29.96,37.46 31.58,35.53 31.58,35.53 		"/>
		<polygon class="st2" points="31.6,35.57 29.98,37.5 29.98,37.5 29.97,37.49 31.59,35.55 31.6,35.57 		"/>
		<polygon class="st2" points="31.6,35.57 29.98,37.5 29.98,37.5 29.97,37.49 31.59,35.55 31.6,35.57 		"/>
		<polygon class="st3" points="33.86,36.96 32.24,38.89 30.88,39.61 32.5,37.68 		"/>
		<polygon class="st3" points="33.86,36.96 32.24,38.89 30.88,39.61 32.5,37.68 		"/>
		<polygon class="st2" points="34.25,39.61 32.63,41.54 32.42,41.7 34.03,39.77 		"/>
		<polygon class="st2" points="34.25,39.61 32.63,41.54 32.42,41.7 34.03,39.77 		"/>
		<polygon class="st2" points="34.03,39.77 32.42,41.7 30.91,41.84 32.52,39.91 		"/>
		<polygon class="st2" points="34.03,39.77 32.42,41.7 30.91,41.84 32.52,39.91 		"/>
		<polygon class="st3" points="33.48,42.33 31.87,44.26 31.56,44.35 33.18,42.42 		"/>
		<polygon class="st3" points="33.48,42.33 31.87,44.26 31.56,44.35 33.18,42.42 		"/>
		<polygon class="st2" points="33.18,42.42 31.56,44.35 30.1,43.89 31.71,41.96 		"/>
		<polygon class="st2" points="33.18,42.42 31.56,44.35 30.1,43.89 31.71,41.96 		"/>
		<polygon class="st3" points="32.13,44.08 30.51,46.01 29.9,46.59 31.51,44.66 		"/>
		<polygon class="st3" points="32.13,44.08 30.51,46.01 29.9,46.59 31.51,44.66 		"/>
		<polygon class="st3" points="31.51,44.66 29.9,46.59 29.62,46.53 31.24,44.6 		"/>
		<polygon class="st3" points="31.51,44.66 29.9,46.59 29.62,46.53 31.24,44.6 		"/>
		<polygon class="st2" points="31.24,44.6 29.62,46.53 28.46,45.62 30.08,43.69 		"/>
		<polygon class="st2" points="31.24,44.6 29.62,46.53 28.46,45.62 30.08,43.69 		"/>
		<polygon class="st3" points="30.08,43.69 28.46,45.62 28.43,45.64 28.4,45.66 28.36,45.68 28.33,45.7 28.29,45.72 28.26,45.74 
			29.87,43.81 29.91,43.79 29.94,43.77 29.98,43.75 30.01,43.73 30.04,43.71 		"/>
		<polygon class="st2" points="29.87,43.81 28.26,45.74 28.22,45.77 28.18,45.79 28.15,45.81 28.11,45.83 28.07,45.86 29.69,43.93 
			29.73,43.9 29.76,43.88 29.8,43.86 29.84,43.84 		"/>
		<polygon class="st2" points="29.69,43.93 28.07,45.86 28.03,45.88 28,45.9 27.96,45.92 27.92,45.95 27.89,45.97 29.5,44.04 
			29.54,44.02 29.58,43.99 29.61,43.97 29.65,43.95 		"/>
		<polygon class="st3" points="30.08,43.69 28.46,45.62 28.43,45.64 28.4,45.66 28.36,45.68 28.33,45.7 28.29,45.72 28.26,45.74 
			28.22,45.77 28.18,45.79 28.15,45.81 28.11,45.83 28.07,45.86 28.03,45.88 28,45.9 27.96,45.92 27.92,45.95 27.89,45.97 
			29.5,44.04 29.54,44.02 29.58,43.99 29.61,43.97 29.65,43.95 29.69,43.93 29.73,43.9 29.76,43.88 29.8,43.86 29.84,43.84 
			29.87,43.81 29.91,43.79 29.94,43.77 29.98,43.75 30.01,43.73 30.04,43.71 		"/>
		<polygon class="st2" points="29.69,45.75 28.08,47.68 27.26,47.98 28.88,46.05 		"/>
		<polygon class="st2" points="29.69,45.75 28.08,47.68 27.26,47.98 28.88,46.05 		"/>
		<polygon class="st3" points="28.88,46.05 27.26,47.98 27.03,47.84 28.64,45.91 		"/>
		<polygon class="st3" points="28.88,46.05 27.26,47.98 27.03,47.84 28.64,45.91 		"/>
		<polygon class="st3" points="27.92,44.57 26.3,46.5 26.26,46.51 26.22,46.52 26.19,46.53 26.15,46.54 26.12,46.54 26.08,46.55 
			27.7,44.62 27.73,44.61 27.77,44.61 27.8,44.6 27.84,44.59 27.88,44.58 		"/>
		<polygon class="st2" points="27.7,44.62 26.08,46.55 26.05,46.55 26.02,46.56 25.98,46.56 25.95,46.57 25.91,46.57 25.88,46.58 
			27.5,44.65 27.53,44.64 27.56,44.64 27.6,44.63 27.63,44.63 27.66,44.62 		"/>
		<polygon class="st3" points="27.5,44.65 25.88,46.58 25.84,46.59 25.81,46.59 25.77,46.6 25.73,46.61 27.35,44.68 27.39,44.67 
			27.42,44.66 27.46,44.66 		"/>
		<polygon class="st3" points="27.92,44.57 26.3,46.5 26.26,46.51 26.22,46.52 26.19,46.53 26.15,46.54 26.12,46.54 26.08,46.55 
			26.05,46.55 26.02,46.56 25.98,46.56 25.95,46.57 25.91,46.57 25.88,46.58 25.84,46.59 25.81,46.59 25.77,46.6 25.73,46.61 
			27.35,44.68 27.39,44.67 27.42,44.66 27.46,44.66 27.5,44.65 27.53,44.64 27.56,44.64 27.6,44.63 27.63,44.63 27.66,44.62 
			27.7,44.62 27.73,44.61 27.77,44.61 27.8,44.6 27.84,44.59 27.88,44.58 		"/>
		<polygon class="st2" points="27.92,44.58 26.31,46.51 26.31,46.51 26.3,46.51 26.3,46.51 26.29,46.51 26.29,46.51 26.29,46.51 
			27.91,44.58 27.91,44.58 27.91,44.58 27.91,44.58 27.92,44.58 27.92,44.58 		"/>
		<polygon class="st2" points="27.92,44.58 26.31,46.51 26.31,46.51 26.3,46.51 26.3,46.51 26.29,46.51 26.29,46.51 26.29,46.51 
			27.91,44.58 27.91,44.58 27.91,44.58 27.91,44.58 27.92,44.58 27.92,44.58 		"/>
		<polygon class="st2" points="28.64,45.91 27.03,47.84 26.3,46.51 27.92,44.58 		"/>
		<polygon class="st2" points="28.64,45.91 27.03,47.84 26.3,46.51 27.92,44.58 		"/>
		<polygon class="st3" points="26.88,46.35 25.27,48.28 24.43,48.25 26.05,46.32 		"/>
		<polygon class="st3" points="26.88,46.35 25.27,48.28 24.43,48.25 26.05,46.32 		"/>
		<polygon class="st3" points="26.05,46.32 24.43,48.25 24.23,48.03 25.84,46.1 		"/>
		<polygon class="st3" points="26.05,46.32 24.43,48.25 24.23,48.03 25.84,46.1 		"/>
		<polygon class="st3" points="25.84,46.1 24.23,48.03 24.05,46.51 25.67,44.58 		"/>
		<polygon class="st3" points="25.84,46.1 24.23,48.03 24.05,46.51 25.67,44.58 		"/>
		<polygon class="st2" points="25.67,44.58 24.05,46.51 24.02,46.51 23.99,46.51 23.95,46.5 23.92,46.49 23.88,46.49 23.85,46.48 
			25.46,44.55 25.5,44.56 25.53,44.56 25.57,44.57 25.6,44.57 25.64,44.58 		"/>
		<polygon class="st3" points="25.46,44.55 23.85,46.48 23.81,46.47 23.77,46.46 23.73,46.45 23.7,46.45 23.66,46.44 23.62,46.43 
			25.24,44.5 25.28,44.51 25.31,44.52 25.35,44.52 25.39,44.53 25.43,44.54 		"/>
		<polygon class="st3" points="25.24,44.5 23.62,46.43 23.59,46.42 23.55,46.41 23.51,46.4 23.48,46.38 25.1,44.45 25.13,44.47 
			25.17,44.48 25.2,44.49 		"/>
		<polygon class="st2" points="25.67,44.58 24.05,46.51 24.02,46.51 23.99,46.51 23.95,46.5 23.92,46.49 23.88,46.49 23.85,46.48 
			23.81,46.47 23.77,46.46 23.73,46.45 23.7,46.45 23.66,46.44 23.62,46.43 23.59,46.42 23.55,46.41 23.51,46.4 23.48,46.38 
			25.1,44.45 25.13,44.47 25.17,44.48 25.2,44.49 25.24,44.5 25.28,44.51 25.31,44.52 25.35,44.52 25.39,44.53 25.43,44.54 
			25.46,44.55 25.5,44.56 25.53,44.56 25.57,44.57 25.6,44.57 25.64,44.58 		"/>
		
			<rect x="23.03" y="45.41" transform="matrix(0.642 -0.7667 0.7667 0.642 -26.1209 34.8762)" class="st3" width="2.52" height="0"/>
		<g>
			<path class="st3" d="M25.1,44.45"/>
			<path class="st4" d="M23.48,46.38L23.48,46.38L23.48,46.38z M25.1,44.45"/>
		</g>
		<polygon class="st3" points="25.1,44.45 23.48,46.38 23.48,46.38 23.48,46.38 23.48,46.38 23.48,46.38 23.48,46.38 23.48,46.38 
			23.48,46.38 25.1,44.45 25.1,44.45 25.1,44.45 25.1,44.45 25.1,44.45 25.1,44.45 25.1,44.45 		"/>
		<polygon class="st3" points="25.1,44.45 23.48,46.38 23.48,46.38 23.48,46.38 23.48,46.38 23.48,46.38 23.48,46.38 23.48,46.38 
			23.48,46.38 25.1,44.45 25.1,44.45 25.1,44.45 25.1,44.45 25.1,44.45 25.1,44.45 25.1,44.45 		"/>
		<polygon class="st2" points="24.25,45.71 22.63,47.64 22.38,47.77 24,45.84 		"/>
		<polygon class="st2" points="24.25,45.71 22.63,47.64 22.38,47.77 24,45.84 		"/>
		<polygon class="st3" points="24,45.84 22.38,47.77 21.61,47.41 23.23,45.48 		"/>
		<polygon class="st3" points="24,45.84 22.38,47.77 21.61,47.41 23.23,45.48 		"/>
		<polygon class="st3" points="23.23,45.48 21.61,47.41 21.5,47.12 23.11,45.19 		"/>
		<polygon class="st3" points="23.23,45.48 21.61,47.41 21.5,47.12 23.11,45.19 		"/>
		<polygon class="st2" points="23.11,45.19 21.5,47.12 21.96,45.68 23.57,43.75 		"/>
		<polygon class="st2" points="23.11,45.19 21.5,47.12 21.96,45.68 23.57,43.75 		"/>
		<polygon class="st3" points="23.57,43.75 21.96,45.68 21.92,45.66 21.89,45.63 21.86,45.61 21.82,45.59 21.79,45.57 23.41,43.64 
			23.44,43.66 23.47,43.68 23.51,43.7 23.54,43.73 		"/>
		<polygon class="st2" points="23.41,43.64 21.79,45.57 21.76,45.54 21.73,45.52 21.69,45.49 21.66,45.47 21.63,45.45 23.25,43.51 
			23.28,43.54 23.31,43.56 23.34,43.59 23.38,43.61 		"/>
		<polygon class="st2" points="23.25,43.51 21.63,45.45 21.6,45.42 21.56,45.4 21.53,45.37 21.5,45.35 21.46,45.33 23.08,43.39 
			23.11,43.42 23.15,43.44 23.18,43.47 23.21,43.49 		"/>
		<polygon class="st3" points="23.08,43.39 21.46,45.33 21.43,45.3 23.05,43.37 		"/>
		<polygon class="st3" points="23.57,43.75 21.96,45.68 21.92,45.66 21.89,45.63 21.86,45.61 21.82,45.59 21.79,45.57 21.76,45.54 
			21.73,45.52 21.69,45.49 21.66,45.47 21.63,45.45 21.6,45.42 21.56,45.4 21.53,45.37 21.5,45.35 21.46,45.33 21.43,45.3 
			23.05,43.37 23.08,43.39 23.11,43.42 23.15,43.44 23.18,43.47 23.21,43.49 23.25,43.51 23.28,43.54 23.31,43.56 23.34,43.59 
			23.38,43.61 23.41,43.64 23.44,43.66 23.47,43.68 23.51,43.7 23.54,43.73 		"/>
		<polygon class="st3" points="23.05,43.37 21.43,45.3 20.19,46.15 21.81,44.22 		"/>
		<polygon class="st3" points="23.05,43.37 21.43,45.3 20.19,46.15 21.81,44.22 		"/>
		<polygon class="st2" points="21.81,44.22 20.19,46.15 19.87,46.13 21.48,44.2 		"/>
		<polygon class="st2" points="21.81,44.22 20.19,46.15 19.87,46.13 21.48,44.2 		"/>
		<polygon class="st2" points="21.48,44.2 19.87,46.13 19.32,45.51 20.93,43.58 		"/>
		<polygon class="st2" points="21.48,44.2 19.87,46.13 19.32,45.51 20.93,43.58 		"/>
		<polygon class="st3" points="21.92,42.14 20.3,44.07 20.28,44.03 20.26,44 20.24,43.97 20.22,43.94 20.2,43.9 20.19,43.87 
			21.8,41.94 21.82,41.97 21.84,42.01 21.86,42.04 21.88,42.07 21.9,42.1 		"/>
		<polygon class="st2" points="21.8,41.94 20.19,43.87 20.17,43.84 20.15,43.81 20.13,43.78 20.11,43.75 20.09,43.72 20.07,43.69 
			21.69,41.76 21.71,41.79 21.73,41.82 21.74,41.85 21.76,41.88 21.78,41.91 		"/>
		<polygon class="st2" points="21.69,41.76 20.07,43.69 20.05,43.66 20.04,43.63 20.02,43.6 20,43.57 21.61,41.64 21.63,41.67 
			21.65,41.7 21.67,41.73 		"/>
		<polygon class="st3" points="21.92,42.14 20.3,44.07 20.28,44.03 20.26,44 20.24,43.97 20.22,43.94 20.2,43.9 20.19,43.87 
			20.17,43.84 20.15,43.81 20.13,43.78 20.11,43.75 20.09,43.72 20.07,43.69 20.05,43.66 20.04,43.63 20.02,43.6 20,43.57 
			21.61,41.64 21.63,41.67 21.65,41.7 21.67,41.73 21.69,41.76 21.71,41.79 21.73,41.82 21.74,41.85 21.76,41.88 21.78,41.91 
			21.8,41.94 21.82,41.97 21.84,42.01 21.86,42.04 21.88,42.07 21.9,42.1 		"/>
		<polygon class="st3" points="20.93,43.58 19.32,45.51 19.33,45.22 20.94,43.29 		"/>
		<polygon class="st3" points="20.93,43.58 19.32,45.51 19.33,45.22 20.94,43.29 		"/>
		<polygon class="st2" points="21.61,41.64 20,43.57 18.5,43.85 20.11,41.92 		"/>
		<polygon class="st2" points="21.61,41.64 20,43.57 18.5,43.85 20.11,41.92 		"/>
		<polygon class="st3" points="20.11,41.92 18.5,43.85 18.22,43.75 19.83,41.82 		"/>
		<polygon class="st3" points="20.11,41.92 18.5,43.85 18.22,43.75 19.83,41.82 		"/>
		<polygon class="st3" points="21.05,40.06 19.43,41.99 19.43,41.97 19.42,41.95 19.41,41.93 19.41,41.91 19.4,41.89 19.4,41.87 
			19.39,41.84 19.39,41.82 19.38,41.8 19.38,41.78 19.37,41.76 20.99,39.83 20.99,39.85 21,39.87 21,39.89 21.01,39.91 21.01,39.93 
			21.02,39.96 21.02,39.98 21.03,40 21.04,40.02 21.04,40.04 		"/>
		<polygon class="st3" points="20.99,39.83 19.37,41.76 19.37,41.74 19.37,41.72 19.36,41.7 19.36,41.68 19.35,41.66 19.35,41.64 
			19.35,41.62 19.35,41.6 19.34,41.58 19.34,41.56 19.34,41.54 20.95,39.61 20.96,39.63 20.96,39.65 20.96,39.67 20.96,39.69 
			20.97,39.71 20.97,39.73 20.97,39.75 20.98,39.77 20.98,39.79 20.99,39.81 		"/>
		<polygon class="st2" points="20.95,39.61 19.34,41.54 19.34,41.52 19.33,41.5 19.33,41.48 19.33,41.46 19.33,41.44 19.33,41.41 
			19.33,41.39 19.33,41.37 19.33,41.35 19.33,41.33 20.94,39.4 20.94,39.42 20.94,39.44 20.94,39.46 20.95,39.48 20.95,39.51 
			20.95,39.53 20.95,39.55 20.95,39.57 20.95,39.59 		"/>
		<polygon class="st3" points="21.05,40.06 19.43,41.99 19.43,41.97 19.42,41.95 19.41,41.93 19.41,41.91 19.4,41.89 19.4,41.87 
			19.39,41.84 19.39,41.82 19.38,41.8 19.38,41.78 19.37,41.76 19.37,41.74 19.37,41.72 19.36,41.7 19.36,41.68 19.35,41.66 
			19.35,41.64 19.35,41.62 19.35,41.6 19.34,41.58 19.34,41.56 19.34,41.54 19.34,41.52 19.33,41.5 19.33,41.48 19.33,41.46 
			19.33,41.44 19.33,41.41 19.33,41.39 19.33,41.37 19.33,41.35 19.33,41.33 20.94,39.4 20.94,39.42 20.94,39.44 20.94,39.46 
			20.95,39.48 20.95,39.51 20.95,39.53 20.95,39.55 20.95,39.57 20.95,39.59 20.95,39.61 20.96,39.63 20.96,39.65 20.96,39.67 
			20.96,39.69 20.97,39.71 20.97,39.73 20.97,39.75 20.98,39.77 20.98,39.79 20.99,39.81 20.99,39.83 20.99,39.85 21,39.87 
			21,39.89 21.01,39.91 21.01,39.93 21.02,39.96 21.02,39.98 21.03,40 21.04,40.02 21.04,40.04 		"/>
		<polygon class="st3" points="21.02,37.74 19.4,39.67 19.4,39.64 19.41,39.62 19.41,39.6 19.41,39.58 19.42,39.56 19.42,39.54 
			19.43,39.52 19.43,39.5 19.44,39.48 19.44,39.46 19.45,39.44 21.07,37.51 21.06,37.53 21.05,37.55 21.05,37.57 21.04,37.59 
			21.04,37.61 21.04,37.63 21.03,37.65 21.03,37.67 21.02,37.69 21.02,37.71 		"/>
		<polygon class="st2" points="21.07,37.51 19.45,39.44 19.45,39.42 19.46,39.4 19.47,39.38 19.47,39.36 19.48,39.34 19.48,39.32 
			19.49,39.3 19.49,39.28 19.5,39.26 19.51,39.24 19.51,39.22 21.13,37.29 21.12,37.31 21.12,37.33 21.11,37.35 21.1,37.37 
			21.1,37.39 21.09,37.41 21.09,37.43 21.08,37.45 21.08,37.47 21.07,37.49 		"/>
		<polygon class="st3" points="21.13,37.29 19.51,39.22 19.52,39.2 19.53,39.18 19.53,39.16 19.54,39.14 19.54,39.12 19.55,39.1 
			19.56,39.08 19.56,39.06 19.57,39.04 19.58,39.02 21.19,37.09 21.19,37.11 21.18,37.13 21.17,37.15 21.17,37.17 21.16,37.19 
			21.15,37.21 21.15,37.23 21.14,37.25 21.14,37.27 		"/>
		<polygon class="st3" points="21.02,37.74 19.4,39.67 19.4,39.64 19.41,39.62 19.41,39.6 19.41,39.58 19.42,39.56 19.42,39.54 
			19.43,39.52 19.43,39.5 19.44,39.48 19.44,39.46 19.45,39.44 19.45,39.42 19.46,39.4 19.47,39.38 19.47,39.36 19.48,39.34 
			19.48,39.32 19.49,39.3 19.49,39.28 19.5,39.26 19.51,39.24 19.51,39.22 19.52,39.2 19.53,39.18 19.53,39.16 19.54,39.14 
			19.54,39.12 19.55,39.1 19.56,39.08 19.56,39.06 19.57,39.04 19.58,39.02 21.19,37.09 21.19,37.11 21.18,37.13 21.17,37.15 
			21.17,37.17 21.16,37.19 21.15,37.21 21.15,37.23 21.14,37.25 21.14,37.27 21.13,37.29 21.12,37.31 21.12,37.33 21.11,37.35 
			21.1,37.37 21.1,37.39 21.09,37.41 21.09,37.43 21.08,37.45 21.08,37.47 21.07,37.49 21.07,37.51 21.06,37.53 21.05,37.55 
			21.05,37.57 21.04,37.59 21.04,37.61 21.04,37.63 21.03,37.65 21.03,37.67 21.02,37.69 21.02,37.71 		"/>
		<polygon class="st3" points="20.94,39.4 19.33,41.33 17.85,41.06 19.47,39.13 		"/>
		<polygon class="st3" points="20.94,39.4 19.33,41.33 17.85,41.06 19.47,39.13 		"/>
		<polygon class="st2" points="19.54,41.05 17.92,42.98 18.06,42.67 19.68,40.74 		"/>
		<polygon class="st2" points="19.54,41.05 17.92,42.98 18.06,42.67 19.68,40.74 		"/>
		<polygon class="st3" points="19.47,39.13 17.85,41.06 17.67,40.87 19.28,38.94 		"/>
		<polygon class="st3" points="19.47,39.13 17.85,41.06 17.67,40.87 19.28,38.94 		"/>
		<polygon class="st3" points="21.94,35.57 20.33,37.5 20.35,37.48 20.36,37.45 20.38,37.43 20.4,37.4 20.42,37.38 20.44,37.35 
			20.45,37.33 22.07,35.4 22.05,35.42 22.03,35.45 22.02,35.47 22,35.5 21.98,35.52 21.96,35.55 		"/>
		<polygon class="st2" points="22.07,35.4 20.45,37.33 20.47,37.3 22.09,35.37 		"/>
		<polygon class="st3" points="21.94,35.57 20.33,37.5 20.35,37.48 20.36,37.45 20.38,37.43 20.4,37.4 20.42,37.38 20.44,37.35 
			20.45,37.33 20.47,37.3 22.09,35.37 22.07,35.4 22.05,35.42 22.03,35.45 22.02,35.47 22,35.5 21.98,35.52 21.96,35.55 		"/>
		<polygon class="st2" points="19.83,41.82 18.22,43.75 17.92,42.98 19.54,41.05 		"/>
		<polygon class="st2" points="19.83,41.82 18.22,43.75 17.92,42.98 19.54,41.05 		"/>
		<polygon class="st2" points="23.96,33.75 22.34,35.68 22.01,34.14 23.63,32.21 		"/>
		<polygon class="st2" points="23.96,33.75 22.34,35.68 22.01,34.14 23.63,32.21 		"/>
		<polygon class="st3" points="19.93,36.28 18.32,38.21 18.22,37.91 19.83,35.98 		"/>
		<polygon class="st3" points="19.93,36.28 18.32,38.21 18.22,37.91 19.83,35.98 		"/>
		<polygon class="st2" points="21.38,33.89 19.76,35.82 19.76,35.55 21.38,33.62 		"/>
		<polygon class="st2" points="21.38,33.89 19.76,35.82 19.76,35.55 21.38,33.62 		"/>
		<polygon class="st3" points="22.25,35.17 20.63,37.1 19.76,35.82 21.38,33.89 		"/>
		<polygon class="st3" points="22.25,35.17 20.63,37.1 19.76,35.82 21.38,33.89 		"/>
		<polygon class="st2" points="21.19,37.09 19.58,39.02 18.32,38.21 19.93,36.28 		"/>
		<polygon class="st2" points="21.19,37.09 19.58,39.02 18.32,38.21 19.93,36.28 		"/>
		<polygon class="st2" points="19.83,35.98 18.22,37.91 18.57,37.17 20.19,35.24 		"/>
		<polygon class="st5" points="19.83,35.98 18.22,37.91 18.57,37.17 20.19,35.24 		"/>
		<polygon class="st3" points="19.28,38.94 17.67,40.87 17.68,40.01 19.3,38.08 		"/>
		<polygon class="st3" points="19.28,38.94 17.67,40.87 17.68,40.01 19.3,38.08 		"/>
		<polygon class="st3" points="23.63,32.21 22.01,34.14 22.11,33.87 23.73,31.94 		"/>
		<polygon class="st3" points="23.63,32.21 22.01,34.14 22.11,33.87 23.73,31.94 		"/>
		<polygon class="st3" points="26.13,33.05 24.51,34.98 24.5,34.98 24.48,34.98 26.1,33.05 26.12,33.05 		"/>
		<polygon class="st3" points="26.13,33.05 24.51,34.98 24.5,34.98 24.48,34.98 26.1,33.05 26.12,33.05 		"/>
		<polygon class="st2" points="26.1,33.05 24.48,34.98 24.71,33.46 26.33,31.53 		"/>
		<polygon class="st2" points="26.1,33.05 24.48,34.98 24.71,33.46 26.33,31.53 		"/>
		<polygon class="st3" points="26.11,33.05 24.49,34.98 24.47,34.99 24.47,34.99 26.09,33.06 26.09,33.06 		"/>
		<polygon class="st3" points="26.11,33.05 24.49,34.98 24.47,34.99 24.47,34.99 26.09,33.06 26.09,33.06 		"/>
		<polygon class="st2" points="23.93,36.73 22.32,38.66 22.42,38.53 24.04,36.6 		"/>
		<polygon class="st2" points="24.04,36.6 22.42,38.53 22.54,38.4 24.15,36.47 		"/>
		<polygon class="st2" points="24.15,36.47 22.54,38.4 22.66,38.28 24.27,36.35 		"/>
		<polygon class="st2" points="24.27,36.35 22.66,38.28 22.78,38.16 24.4,36.23 		"/>
		<polygon class="st3" points="24.4,36.23 22.78,38.16 22.91,38.05 24.53,36.12 		"/>
		<polygon class="st2" points="24.53,36.12 22.91,38.05 23.04,37.95 24.66,36.02 		"/>
		<polygon class="st2" points="24.66,36.02 23.04,37.95 23.19,37.85 24.8,35.92 		"/>
		<polygon class="st2" points="24.8,35.92 23.19,37.85 23.33,37.76 24.95,35.83 		"/>
		<polygon class="st3" points="24.95,35.83 23.33,37.76 23.48,37.68 25.1,35.75 		"/>
		<polygon class="st2" points="25.1,35.75 23.48,37.68 23.63,37.6 25.25,35.67 		"/>
		<polygon class="st3" points="25.25,35.67 23.63,37.6 23.79,37.53 25.41,35.6 		"/>
		<polygon class="st2" points="25.41,35.6 23.79,37.53 23.96,37.46 25.57,35.53 		"/>
		<polygon class="st3" points="25.57,35.53 23.96,37.46 24.12,37.41 25.74,35.48 		"/>
		<polygon class="st3" points="25.74,35.48 24.12,37.41 24.29,37.36 25.91,35.43 		"/>
		<polygon class="st3" points="25.91,35.43 24.29,37.36 24.46,37.32 26.08,35.39 		"/>
		<polygon class="st3" points="26.08,35.39 24.46,37.32 24.64,37.29 26.26,35.36 		"/>
		<polygon class="st3" points="26.26,35.36 24.64,37.29 24.82,37.27 26.44,35.34 		"/>
		<polygon class="st2" points="26.44,35.34 24.82,37.27 25,37.26 26.62,35.33 		"/>
		<polygon class="st3" points="26.62,35.33 25,37.26 25.18,37.25 26.8,35.32 		"/>
		<polygon class="st3" points="26.8,35.32 25.18,37.25 25.37,37.26 26.98,35.33 		"/>
		<polygon class="st2" points="26.98,35.33 25.37,37.26 25.55,37.27 27.17,35.34 		"/>
		<polygon class="st2" points="27.17,35.34 25.55,37.27 25.73,37.29 27.34,35.36 		"/>
		<polygon class="st3" points="27.34,35.36 25.73,37.29 25.9,37.32 27.52,35.39 		"/>
		<polygon class="st3" points="27.52,35.39 25.9,37.32 26.08,37.36 27.69,35.43 		"/>
		<polygon class="st2" points="27.69,35.43 26.08,37.36 26.24,37.41 27.86,35.48 		"/>
		<polygon class="st3" points="27.86,35.48 26.24,37.41 26.41,37.46 28.03,35.53 		"/>
		<polygon class="st3" points="28.03,35.53 26.41,37.46 26.57,37.53 28.19,35.6 		"/>
		<polygon class="st3" points="28.19,35.6 26.57,37.53 26.73,37.6 28.35,35.67 		"/>
		<polygon class="st3" points="28.35,35.67 26.73,37.6 26.89,37.68 28.5,35.75 		"/>
		<polygon class="st3" points="28.5,35.75 26.89,37.68 27.03,37.76 28.65,35.83 		"/>
		<polygon class="st3" points="28.65,35.83 27.03,37.76 27.18,37.85 28.8,35.92 		"/>
		<polygon class="st3" points="28.8,35.92 27.18,37.85 27.32,37.95 28.94,36.02 		"/>
		<polygon class="st3" points="28.94,36.02 27.32,37.95 27.45,38.05 29.07,36.12 		"/>
		
			<rect x="27.07" y="37.06" transform="matrix(0.642 -0.7667 0.7667 0.642 -18.3372 35.0162)" class="st3" width="2.52" height="0.17"/>
		<polygon class="st2" points="29.2,36.23 27.58,38.16 27.71,38.28 29.33,36.35 		"/>
		<polygon class="st2" points="29.33,36.35 27.71,38.28 27.83,38.4 29.44,36.47 		"/>
		<polygon class="st3" points="29.44,36.47 27.83,38.4 27.94,38.53 29.56,36.6 		"/>
		<polygon class="st3" points="29.56,36.6 27.94,38.53 28.05,38.66 29.66,36.73 		"/>
		<polygon class="st3" points="29.66,36.73 28.05,38.66 28.15,38.8 29.76,36.87 		"/>
		<polygon class="st3" points="29.76,36.87 28.15,38.8 28.24,38.94 29.85,37.01 		"/>
		<polygon class="st3" points="29.85,37.01 28.24,38.94 28.32,39.09 29.94,37.16 		"/>
		<polygon class="st2" points="29.94,37.16 28.32,39.09 28.4,39.24 30.02,37.31 		"/>
		<polygon class="st2" points="30.02,37.31 28.4,39.24 28.48,39.4 30.09,37.47 		"/>
		<polygon class="st2" points="30.09,37.47 28.48,39.4 28.54,39.56 30.16,37.63 		"/>
		<polygon class="st2" points="30.16,37.63 28.54,39.56 28.6,39.72 30.21,37.79 		"/>
		<polygon class="st2" points="30.21,37.79 28.6,39.72 28.64,39.89 30.26,37.96 		"/>
		<polygon class="st2" points="30.26,37.96 28.64,39.89 28.68,40.06 30.3,38.13 		"/>
		<polygon class="st3" points="30.3,38.13 28.68,40.06 28.72,40.23 30.33,38.3 		"/>
		<polygon class="st2" points="30.33,38.3 28.72,40.23 28.74,40.4 30.35,38.47 		"/>
		<polygon class="st3" points="30.35,38.47 28.74,40.4 28.75,40.58 30.37,38.65 		"/>
		<polygon class="st3" points="30.37,38.65 28.75,40.58 28.76,40.76 30.37,38.83 		"/>
		<polygon class="st3" points="30.37,38.83 28.76,40.76 28.75,40.94 30.37,39.01 		"/>
		<polygon class="st3" points="30.37,39.01 28.75,40.94 28.74,41.12 30.35,39.19 		"/>
		<polygon class="st3" points="30.35,39.19 28.74,41.12 28.72,41.3 30.33,39.37 		"/>
		<polygon class="st2" points="30.33,39.37 28.72,41.3 28.68,41.47 30.3,39.54 		"/>
		<polygon class="st3" points="30.3,39.54 28.68,41.47 28.64,41.64 30.26,39.71 		"/>
		<polygon class="st2" points="30.26,39.71 28.64,41.64 28.6,41.8 30.21,39.87 		"/>
		<polygon class="st2" points="30.21,39.87 28.6,41.8 28.54,41.97 30.16,40.03 		"/>
		<polygon class="st2" points="30.16,40.03 28.54,41.97 28.48,42.12 30.09,40.19 		"/>
		<polygon class="st2" points="30.09,40.19 28.48,42.12 28.4,42.28 30.02,40.35 		"/>
		<polygon class="st2" points="30.02,40.35 28.4,42.28 28.32,42.43 29.94,40.5 		"/>
		<polygon class="st2" points="29.94,40.5 28.32,42.43 28.24,42.58 29.85,40.65 		"/>
		<polygon class="st3" points="29.85,40.65 28.24,42.58 28.15,42.72 29.76,40.79 		"/>
		<polygon class="st3" points="29.76,40.79 28.15,42.72 28.05,42.86 29.66,40.93 		"/>
		<polygon class="st3" points="29.66,40.93 28.05,42.86 27.94,42.99 29.56,41.06 		"/>
		<polygon class="st3" points="29.56,41.06 27.94,42.99 27.83,43.12 29.44,41.19 		"/>
		<polygon class="st2" points="23.93,36.73 22.32,38.66 22.42,38.53 22.54,38.4 22.66,38.28 22.78,38.16 22.91,38.05 23.04,37.95 
			23.19,37.85 23.33,37.76 23.48,37.68 23.63,37.6 23.79,37.53 23.96,37.46 24.12,37.41 24.29,37.36 24.46,37.32 24.64,37.29 
			24.82,37.27 25,37.26 25.18,37.25 25.37,37.26 25.55,37.27 25.73,37.29 25.9,37.32 26.08,37.36 26.24,37.41 26.41,37.46 
			26.57,37.53 26.73,37.6 26.89,37.68 27.03,37.76 27.18,37.85 27.32,37.95 27.45,38.05 27.58,38.16 27.71,38.28 27.83,38.4 
			27.94,38.53 28.05,38.66 28.15,38.8 28.24,38.94 28.32,39.09 28.4,39.24 28.48,39.4 28.54,39.56 28.6,39.72 28.64,39.89 
			28.68,40.06 28.72,40.23 28.74,40.4 28.75,40.58 28.76,40.76 28.75,40.94 28.74,41.12 28.72,41.3 28.68,41.47 28.64,41.64 
			28.6,41.8 28.54,41.97 28.48,42.12 28.4,42.28 28.32,42.43 28.24,42.58 28.15,42.72 28.05,42.86 27.94,42.99 27.83,43.12 
			29.44,41.19 29.56,41.06 29.66,40.93 29.76,40.79 29.85,40.65 29.94,40.5 30.02,40.35 30.09,40.19 30.16,40.03 30.21,39.87 
			30.26,39.71 30.3,39.54 30.33,39.37 30.35,39.19 30.37,39.01 30.37,38.83 30.37,38.65 30.35,38.47 30.33,38.3 30.3,38.13 
			30.26,37.96 30.21,37.79 30.16,37.63 30.09,37.47 30.02,37.31 29.94,37.16 29.85,37.01 29.76,36.87 29.66,36.73 29.56,36.6 
			29.44,36.47 29.33,36.35 29.2,36.23 29.07,36.12 28.94,36.02 28.8,35.92 28.65,35.83 28.5,35.75 28.35,35.67 28.19,35.6 
			28.03,35.53 27.86,35.48 27.69,35.43 27.52,35.39 27.34,35.36 27.17,35.34 26.98,35.33 26.8,35.32 26.62,35.33 26.44,35.34 
			26.26,35.36 26.08,35.39 25.91,35.43 25.74,35.48 25.57,35.53 25.41,35.6 25.25,35.67 25.1,35.75 24.95,35.83 24.8,35.92 
			24.66,36.02 24.53,36.12 24.4,36.23 24.27,36.35 24.15,36.47 24.04,36.6 		"/>
	</g>
	<path class="st0" d="M27.76,33.1c0.24,0.04,0.48,0.1,0.71,0.18L29.29,32l0.3-0.13l0.76,0.38l0.08,0.28l-0.44,1.46
		c0.21,0.13,0.27,0.18,0.48,0.34c-0.04-0.04,0.03,0.05,0,0l1.26-0.86H32l0.6,0.61l-0.04,0.32l-0.97,1.15
		c-0.04-0.05,0.04,0.06,0,0.01c0.17,0.21,0.21,0.3,0.35,0.54l1.48-0.3l0.29,0.11l0.27,0.8l-0.13,0.26l-1.36,0.73
		c0.05,0.17,0.06,0.36,0.11,0.58l1.47,0.26l0.23,0.22l-0.07,0.87l-0.22,0.16l-1.51,0.14c-0.03,0.2-0.07,0.38-0.1,0.56l1.28,0.83
		l0.13,0.28l-0.35,0.75l-0.3,0.09l-1.47-0.46c-0.12,0.21-0.25,0.42-0.42,0.6l0.88,1.21l-0.04,0.32l-0.62,0.57l-0.28-0.05l-1.16-0.91
		c-0.17,0.1-0.38,0.23-0.57,0.35l0.31,1.42l-0.12,0.3l-0.81,0.3l-0.23-0.14l-0.73-1.33c0.02,0-0.03,0,0-0.01
		c-0.22,0.05-0.35,0.06-0.57,0.11l-0.28,1.45l-0.19,0.22l-0.08,0v-4.01h0c1.97,0,3.57-1.57,3.57-3.5c0-1.94-1.6-3.51-3.57-3.51l0,0
		v-4l0.61,0.02l0.18,0.22L27.76,33.1z M26.8,46.35l-0.75-0.03l-0.21-0.22l-0.17-1.51c-0.17-0.02-0.39-0.07-0.57-0.13
		c0-0.01,0-0.01,0-0.01l-0.85,1.27L24,45.84l-0.77-0.37l-0.11-0.29l0.46-1.44c-0.18-0.11-0.34-0.25-0.53-0.38l-1.24,0.85l-0.32-0.02
		l-0.55-0.62l0.01-0.3l0.98-1.15c-0.11-0.18-0.21-0.34-0.31-0.5l-1.5,0.28l-0.28-0.1l-0.3-0.77l0.14-0.31l1.37-0.68
		c-0.07-0.22-0.11-0.43-0.11-0.66l-1.48-0.27l-0.19-0.19l0.01-0.85l0.23-0.21l1.49-0.14c0.04-0.23,0.11-0.43,0.18-0.65l-1.26-0.81
		l-0.1-0.3l0.35-0.74l0.27-0.09l1.48,0.42c0.09-0.12,0.2-0.27,0.3-0.4l-0.87-1.27v-0.28L22,33.04l0.31,0.02l1.19,0.99
		c0.12-0.11,0.29-0.22,0.46-0.3l-0.34-1.54l0.11-0.27l0.8-0.29l0.28,0.13l0.71,1.36c0.25-0.05,0.29-0.08,0.57-0.1
		c-0.07,0.01,0.08,0-0.01,0l0.23-1.53l0.23-0.21l0.24,0.01v4c-1.97,0-3.58,1.58-3.58,3.51c0,1.93,1.6,3.5,3.58,3.5V46.35z"/>
	<polygon class="st6" points="28.11,33.08 26.5,35.01 27.32,33.73 28.94,31.8 	"/>
	<polygon class="st6" points="28.11,33.08 26.5,35.01 27.32,33.73 28.94,31.8 	"/>
	<path class="st7" d="M34.88,39.16l0.04,0.26c-0.28-0.37,0.15-1.26-0.13-1.63h-0.1l-0.09-0.27c-0.19,0,0-0.09-0.19-0.09
		c0-0.18-0.19-0.91-0.1-1.1h0.1v-0.37h-0.1v-0.18c-0.09,0-0.09-0.18-0.28-0.18l-0.21-0.56l-0.23-0.19l0.18,0.21l-0.21-0.28
		l-0.53-0.67c0-0.55-0.04-0.88-0.04-1.34c-0.09,0-0.47-0.18-0.56-0.18c0,0.18-0.09,0.09-0.19,0.09v0.09c-0.19,0-0.19,0.09-0.19,0
		v0.09H31.8v-0.09h-0.19l-0.1-0.09c0-0.37-0.19-1.19,0-1.56h0.1c0.19-0.28,0-0.73,0.28-1c0-0.09,0.1-0.37,0.1-0.46h0.09l0.1-0.37
		h0.09c0.56-0.82-0.37-2.01-0.37-2.74l-0.09-0.09l-0.1-0.09h-0.19v-0.09c-0.09,0-0.75-0.36-0.75-0.36l-0.09-0.19
		c0-0.46,0.28-2.38,0.09-2.74h-0.09c0-0.18-0.1-0.18,0-0.18h-0.1c0-0.09,0-0.36-0.19-0.36v-0.28h-0.09v-0.28h0.09
		c0.1-0.18-0.09-0.73,0-0.92h0.1v-0.36h-0.1V20.4c-0.09,0-0.37-0.27-0.37-0.27l-0.17,0.02l-0.12,0c-0.09,0-0.26-0.39-0.26-0.21
		l-0.1-0.09l-0.03-0.09c-0.19,0-0.31-0.13-0.31-0.22l-0.01-0.01c-1.07-1.5-1.87,1-2.23,1.45l-0.32,0.11
		c-1.93,0.81-1.38,0.53-2.43,1.24c-0.47,0.27-0.37,0.27-0.47,0.45h-0.09c0,0.09-0.19,0.55-0.19,0.64l-0.1,0.09l-0.09,0.09h-0.66
		v-0.09h-0.37v-0.09h-0.37v0.19h-0.09c0,0.09,0.09,0.18-0.1,0.18c0,0.64-0.46,0.73-0.93,0.73c0-0.09-0.19-0.37-0.19-0.46
		c-0.09,0-0.28,0.09-0.37,0.09l0.19,0.18v0.19h0.1c0.09,0.27-0.1,0.91-0.1,1.19l-0.09,0.09h-0.1v0.09h-0.09v0.09l-0.1,0.09
		c-0.19,0-0.19,0.18-0.19,0.28h-0.09c-0.1,0.09,0.09,0.46,0.09,0.55l0.1,0.09l0.09-0.18h0.1c0,0,0.09-0.28,0.09-0.37
		c0.19,0,0-0.09,0.19-0.09c0,0.09-0.19,0,0-0.19h0.19v-0.09h0.19c0-0.18,0.28-0.18,0.37-0.18V25.8h0.47l0.09,0.09v0.27h0.1
		c0.09,0.19,0,1.01-0.19,1.01v0.46h0.09v0.18c0.1,0,0.28,0.28,0.28,0.37l0.09,0.09H22l0.09,0.09c0,0.09,0.1,0.18,0.19,0.18
		c0,0.18,0.19,0.28,0.19,0.37c-0.19-0.19,0-0.09,0.19,0c-0.37-0.19-0.19-0.09,0,0.18c-0.37-0.37-0.19-0.28,0.19,0
		c-0.56-0.37-0.37-0.28,0,0.18c0.1,0,0.19,0.28,0.37,0.28c-0.28-0.28-0.19,0,0,0.18c0.19,0,0,0.09,0.19,0.09c0-0.09-0.19,0,0,0.18
		l0.1,0.09l0.09,0.09c-0.09-0.09,0,0,0.19,0c0,0.09,0.1,0.37,0.19,0.37c0,0.09,0.28,0.64,0.18,0.73h-0.09
		c-0.28,0.46,0.47,1.38,0.47,1.83l0.1,0.09h0.09v0.09h0.1v0.09l0.09,0.09c0.19,0,0.19,0.18,0.28,0.18c0,0.46,0.65,1.01,0.47,1.47
		c0-0.18,0.19,0,0.19,0c0,0.09-0.09,0.36-0.09,0.36h-0.1v0.37h-0.09v0.28h-0.1c-0.19,0.36,0.19,1.55,0.56,1.55
		c0,0.09,0.93,0.46,1.03,0.46l0.09-0.09c0.28,0,1.31,0.73,1.5,0.73c0,0.09,0.19,0.55,0,0.73h-0.1c0,0-0.09,0.28-0.09,0.36
		c0.19,0,1.12,0.19,1.12,0.37c-0.93-0.37,0-0.18,0.19,0c0,0.36,0.56,0.64,0.56,0.92c-0.56-0.55,0-0.28,0.19,0l0.09,0.09v0.09
		c0,0,0.47,0.46,0.56,0.46c0,0.09,0.28,0.28,0.37,0.28c0,0.28,0.1,0.64,0.1,0.91l0.09,0.09l0.1,0.09c0.09,0,0.56,0.46,0.56,0.46
		h0.19v0.09c0-0.09,0,0,0.19,0v0.09c0-0.09,0,0,0.19,0v0.09h0.28c0,0.18,0,0.36-0.09,0.55l0.56,0.55c-0.56-0.55,0,0,0.19,0
		l0.19,0.09c0.09,0,0.75,0.55,0.75,0.82c0.19,0,0,0.09,0.19,0.09c0,0.28-0.1,0.73-0.1,1.01l0.1,0.09l0.19,0.09
		c0.28,0,0.47,0.18,0.75,0.18c0,0.09,0.19,0.36,0.19,0.36h0.09l0.1,0.28h0.09l0.1,0.28c-0.1-0.28,0,0,0.19,0
		c0,0.55,1.49,0.18,1.49,0.64l0.19,0.09l0.19-0.09v-0.09c0.28-0.18,0.19-0.73,0.19-1.1l-0.1-0.09h-0.09c0.19,0-0.1,0.18-0.19,0.18
		c0-0.28,0.19-0.64,0.19-0.73c-0.19,0-0.47-0.18-0.66-0.18V46.3l0.1-0.09h0.09v-0.09h0.1l0.09-0.09v-1.01c0,0.73,0,0.28,0.19,0
		l0.1-0.09v-0.19h0.09c0.1-0.18-0.19-0.36-0.19-0.46c-0.19,0-0.28,0.19-0.37,0.19c0.19-0.19,0.1,0,0,0.18h-0.37v-0.09
		c-0.19-0.09-0.28-0.18-0.37-0.36h-0.09c0.09,0,0,0,0-0.18h-0.1c-0.09-0.28,0-1.37,0-1.65h-0.56c0.47,0,0.1,0,0-0.19
		c-0.19,0,0-0.09-0.19-0.09V41.9h-0.09c0.09,0,0,0,0-0.19h-0.1l-0.37-1.46l-0.09-0.09l-0.1-0.09h-0.28l-0.28-0.37l-0.05-0.05
		c-0.1-0.09-0.14-0.4-0.14-0.59l0.03,0.2L34.88,39.16z"/>
	<g>
		<path class="st0" d="M32.95,27.29h-6.79v-0.28h6.79l0.12,0.07L32.95,27.29L32.95,27.29z M32.95,27.01h0.08l0.04,0.07L32.95,27.01
			L32.95,27.01z M34.26,29.79l-1.44-2.58l0.25-0.14l1.44,2.58l-0.12,0.21L34.26,29.79L34.26,29.79z M34.51,29.66l0.12,0.21h-0.24
			L34.51,29.66L34.51,29.66z M24.7,29.58h9.69v0.28H24.7l-0.12-0.21L24.7,29.58L24.7,29.58z M24.7,29.86h-0.24l0.12-0.21L24.7,29.86
			L24.7,29.86z M26.28,27.22l-1.46,2.58l-0.24-0.14l1.46-2.58l0.12-0.07L26.28,27.22L26.28,27.22z M26.04,27.08l0.04-0.07h0.08
			L26.04,27.08L26.04,27.08z M25.63,29.65l0.42-2.5l0.28,0.05l-0.42,2.5l-0.09,0.11L25.63,29.65L25.63,29.65z M25.81,29.81
			l-0.22,0.08l0.04-0.23L25.81,29.81L25.81,29.81z M32.97,27.31l-7.16,2.49l-0.09-0.27l7.16-2.49l0.18,0.11L32.97,27.31L32.97,27.31
			z M32.88,27.05L33.03,27l0.03,0.16L32.88,27.05L32.88,27.05z M33.22,29.7l-0.44-2.49l0.28-0.05l0.44,2.49l-0.18,0.16L33.22,29.7
			L33.22,29.7z M33.5,29.65l0.04,0.24l-0.23-0.08L33.5,29.65L33.5,29.65z M26.23,27.05l7.17,2.49l-0.09,0.27l-7.17-2.49l-0.09-0.16
			L26.23,27.05L26.23,27.05z M26.05,27.16l0.03-0.16l0.16,0.05L26.05,27.16L26.05,27.16z M32.55,24.97H26.5v-0.28h6.05l0.12,0.07
			L32.55,24.97L32.55,24.97z M32.55,24.69h0.08l0.04,0.07L32.55,24.69L32.55,24.69z M33.7,27.22l-1.28-2.32l0.25-0.14l1.28,2.32
			l-0.12,0.21L33.7,27.22L33.7,27.22z M33.95,27.08l0.12,0.21h-0.24L33.95,27.08L33.95,27.08z M25.2,27.01h8.63v0.28H25.2
			l-0.12-0.21L25.2,27.01L25.2,27.01z M25.2,27.29h-0.24l0.12-0.21L25.2,27.29L25.2,27.29z M26.62,24.9l-1.3,2.32l-0.24-0.14
			l1.3-2.32l0.12-0.07L26.62,24.9L26.62,24.9z M26.38,24.77l0.04-0.07h0.08L26.38,24.77L26.38,24.77z M26.01,27.08l0.37-2.25
			l0.28,0.05l-0.37,2.25l-0.09,0.11L26.01,27.08L26.01,27.08z M26.2,27.24l-0.22,0.08l0.04-0.23L26.2,27.24L26.2,27.24z M32.58,25
			l-6.38,2.24l-0.09-0.27l6.38-2.24l0.19,0.11L32.58,25L32.58,25z M32.48,24.73l0.16-0.06l0.03,0.16L32.48,24.73L32.48,24.73z
			 M32.78,27.13l-0.39-2.24l0.28-0.05l0.39,2.24l-0.18,0.16L32.78,27.13L32.78,27.13z M33.06,27.08l0.04,0.24l-0.23-0.08
			L33.06,27.08L33.06,27.08z M26.57,24.73l6.39,2.24l-0.09,0.27l-6.39-2.24l-0.09-0.16L26.57,24.73L26.57,24.73z M26.39,24.84
			l0.03-0.16l0.16,0.06L26.39,24.84L26.39,24.84z M32.29,22.41h-5.53v-0.28h5.53l0.13,0.08L32.29,22.41L32.29,22.41z M32.29,22.12
			h0.09l0.04,0.08L32.29,22.12L32.29,22.12z M33.33,24.9l-1.17-2.58l0.26-0.12l1.17,2.58l-0.13,0.2L33.33,24.9L33.33,24.9z
			 M33.59,24.79l0.09,0.2h-0.22L33.59,24.79L33.59,24.79z M25.57,24.7h7.89v0.28h-7.89l-0.13-0.2L25.57,24.7L25.57,24.7z
			 M25.57,24.98h-0.22l0.09-0.2L25.57,24.98L25.57,24.98z M26.89,22.32l-1.19,2.58l-0.26-0.12l1.19-2.58l0.13-0.08L26.89,22.32
			L26.89,22.32z M26.63,22.21l0.04-0.08h0.09L26.63,22.21L26.63,22.21z M26.3,24.78l0.34-2.5l0.28,0.04l-0.34,2.5l-0.08,0.11
			L26.3,24.78L26.3,24.78z M26.49,24.93l-0.23,0.1l0.03-0.25L26.49,24.93L26.49,24.93z M32.33,22.43l-5.83,2.49l-0.11-0.26
			l5.83-2.49l0.19,0.11L32.33,22.43L32.33,22.43z M32.21,22.17l0.17-0.07l0.03,0.18L32.21,22.17L32.21,22.17z M32.49,24.81
			l-0.36-2.49l0.28-0.04l0.36,2.49l-0.19,0.15L32.49,24.81L32.49,24.81z M32.76,24.77l0.04,0.25l-0.23-0.1L32.76,24.77L32.76,24.77z
			 M26.84,22.17l5.84,2.5l-0.11,0.26l-5.84-2.5l-0.08-0.15L26.84,22.17L26.84,22.17z M26.64,22.28l0.02-0.18l0.17,0.07L26.64,22.28
			L26.64,22.28z M31.97,20.15h-4.92v-0.28h4.92l0.13,0.08L31.97,20.15L31.97,20.15z M31.97,19.87h0.09l0.04,0.08L31.97,19.87
			L31.97,19.87z M32.88,22.29l-1.04-2.22l0.25-0.12l1.04,2.22l-0.13,0.2L32.88,22.29L32.88,22.29z M33.14,22.17l0.09,0.2h-0.22
			L33.14,22.17L33.14,22.17z M25.98,22.09h7.03v0.28h-7.03l-0.13-0.2L25.98,22.09L25.98,22.09z M25.98,22.37h-0.22l0.1-0.2
			L25.98,22.37L25.98,22.37z M27.17,20.07l-1.06,2.22l-0.25-0.12l1.06-2.22l0.13-0.08L27.17,20.07L27.17,20.07z M26.92,19.95
			l0.04-0.08h0.09L26.92,19.95L26.92,19.95z M26.62,22.17l0.3-2.15l0.28,0.04l-0.3,2.15l-0.09,0.11L26.62,22.17L26.62,22.17z
			 M26.81,22.32l-0.23,0.09l0.03-0.24L26.81,22.32L26.81,22.32z M32.01,20.17l-5.19,2.15l-0.11-0.26l5.19-2.15l0.19,0.11
			L32.01,20.17L32.01,20.17z M31.9,19.91l0.17-0.07l0.03,0.18L31.9,19.91L31.9,19.91z M32.13,22.21l-0.32-2.15l0.28-0.04l0.32,2.15
			l-0.19,0.15L32.13,22.21L32.13,22.21z M32.41,22.17l0.04,0.24l-0.23-0.09L32.41,22.17L32.41,22.17z M27.12,19.91l5.2,2.15
			l-0.11,0.26l-5.2-2.15l-0.09-0.15L27.12,19.91L27.12,19.91z M26.93,20.02l0.03-0.18l0.17,0.07L26.93,20.02L26.93,20.02z
			 M31.71,18.15h-4.44v-0.28h4.44l0.13,0.08L31.71,18.15L31.71,18.15z M31.71,17.87h0.09l0.04,0.08L31.71,17.87L31.71,17.87z
			 M32.52,20.09l-0.94-2.02l0.25-0.12l0.94,2.02l-0.13,0.2L32.52,20.09L32.52,20.09z M32.78,19.97l0.09,0.2h-0.22L32.78,19.97
			L32.78,19.97z M26.32,19.89h6.34v0.28h-6.34l-0.13-0.2L26.32,19.89L26.32,19.89z M26.32,20.17h-0.22l0.1-0.2L26.32,20.17
			L26.32,20.17z M27.4,18.07l-0.96,2.02l-0.25-0.12l0.96-2.02l0.13-0.08L27.4,18.07L27.4,18.07z M27.14,17.95l0.04-0.08h0.09
			L27.14,17.95L27.14,17.95z M26.88,19.97l0.27-1.96l0.28,0.04l-0.27,1.96l-0.08,0.11L26.88,19.97L26.88,19.97z M27.07,20.12
			l-0.23,0.09l0.03-0.24L27.07,20.12L27.07,20.12z M31.75,18.16l-4.68,1.95l-0.11-0.26l4.68-1.95l0.19,0.11L31.75,18.16L31.75,18.16
			z M31.64,17.9l0.17-0.07l0.03,0.18L31.64,17.9L31.64,17.9z M31.84,20.01l-0.29-1.95l0.28-0.04l0.29,1.95l-0.19,0.15L31.84,20.01
			L31.84,20.01z M32.12,19.97l0.04,0.25l-0.23-0.1L32.12,19.97L32.12,19.97z M27.34,17.9l4.69,1.95l-0.11,0.26l-4.69-1.95
			l-0.09-0.15L27.34,17.9L27.34,17.9z M27.15,18.01l0.03-0.18l0.17,0.07L27.15,18.01L27.15,18.01z M31.48,16.21h-3.96v-0.28h3.96
			l0.13,0.08L31.48,16.21L31.48,16.21z M31.48,15.93h0.09l0.04,0.08L31.48,15.93L31.48,15.93z M32.19,18.07l-0.84-1.94l0.26-0.11
			l0.84,1.94l-0.13,0.2L32.19,18.07L32.19,18.07z M32.45,17.96l0.08,0.2h-0.21L32.45,17.96L32.45,17.96z M26.68,17.87h5.64v0.28
			h-5.64l-0.13-0.2L26.68,17.87L26.68,17.87z M26.68,18.15h-0.22l0.09-0.2L26.68,18.15L26.68,18.15z M27.66,16.13l-0.85,1.94
			l-0.26-0.11l0.85-1.94l0.13-0.08L27.66,16.13L27.66,16.13z M27.4,16.01l0.04-0.08h0.09L27.4,16.01L27.4,16.01z M27.16,17.95
			l0.24-1.88l0.28,0.04l-0.24,1.88l-0.08,0.11L27.16,17.95L27.16,17.95z M27.36,18.1l-0.23,0.1l0.03-0.25L27.36,18.1L27.36,18.1z
			 M31.53,16.22l-4.17,1.88l-0.12-0.26l4.17-1.88l0.2,0.11L31.53,16.22L31.53,16.22z M31.41,15.96l0.17-0.08l0.03,0.19L31.41,15.96
			L31.41,15.96z M31.59,17.99l-0.25-1.88l0.28-0.04l0.25,1.88l-0.2,0.15L31.59,17.99L31.59,17.99z M31.86,17.95l0.03,0.25l-0.23-0.1
			L31.86,17.95L31.86,17.95z M27.6,15.96l4.18,1.88l-0.12,0.26l-4.18-1.88l-0.08-0.15L27.6,15.96L27.6,15.96z M27.41,16.07
			l0.02-0.19l0.17,0.08L27.41,16.07L27.41,16.07z M31.29,14.3h-3.62v-0.28h3.62l0.13,0.09L31.29,14.3L31.29,14.3z M31.29,14.02h0.09
			l0.04,0.09L31.29,14.02L31.29,14.02z M31.92,16.08l-0.77-1.87l0.26-0.11l0.77,1.87l-0.13,0.19L31.92,16.08L31.92,16.08z
			 M32.18,15.97l0.08,0.19h-0.21L32.18,15.97L32.18,15.97z M26.89,15.88h5.16v0.28h-5.16l-0.13-0.19L26.89,15.88L26.89,15.88z
			 M26.89,16.17h-0.21l0.08-0.19L26.89,16.17L26.89,16.17z M27.8,14.21l-0.78,1.87l-0.26-0.11l0.78-1.87l0.13-0.09L27.8,14.21
			L27.8,14.21z M27.54,14.1l0.04-0.09h0.09L27.54,14.1L27.54,14.1z M27.32,15.99l0.22-1.81l0.28,0.03l-0.22,1.81l-0.08,0.11
			L27.32,15.99L27.32,15.99z M27.52,16.14l-0.23,0.11l0.03-0.25L27.52,16.14L27.52,16.14z M31.34,14.33l-3.81,1.81l-0.12-0.25
			l3.81-1.81l0.2,0.11L31.34,14.33L31.34,14.33z M31.22,14.08L31.39,14l0.02,0.19L31.22,14.08L31.22,14.08z M31.37,16.03l-0.23-1.81
			l0.28-0.04l0.23,1.81l-0.2,0.14L31.37,16.03L31.37,16.03z M31.65,15.99l0.03,0.25l-0.23-0.11L31.65,15.99L31.65,15.99z
			 M27.75,14.08l3.82,1.81l-0.12,0.25l-3.82-1.81l-0.08-0.14L27.75,14.08L27.75,14.08z M27.55,14.19l0.02-0.19l0.18,0.08
			L27.55,14.19L27.55,14.19z M31.12,12.62H27.9v-0.28h3.22l0.13,0.09L31.12,12.62L31.12,12.62z M31.12,12.33h0.1l0.04,0.09
			L31.12,12.33L31.12,12.33z M31.67,14.23l-0.68-1.71l0.26-0.1l0.68,1.71l-0.13,0.19L31.67,14.23L31.67,14.23z M31.93,14.13
			l0.08,0.19H31.8L31.93,14.13L31.93,14.13z M27.21,14.04h4.6v0.28h-4.6l-0.13-0.19L27.21,14.04L27.21,14.04z M27.21,14.32H27
			l0.08-0.19L27.21,14.32L27.21,14.32z M28.03,12.53l-0.69,1.71l-0.26-0.11l0.69-1.71l0.13-0.09L28.03,12.53L28.03,12.53z
			 M27.77,12.42l0.04-0.09h0.09L27.77,12.42L27.77,12.42z M27.57,14.12l0.2-1.65l0.28,0.03l-0.2,1.65l-0.08,0.11L27.57,14.12
			L27.57,14.12z M27.78,14.27l-0.23,0.11l0.03-0.26L27.78,14.27L27.78,14.27z M31.17,12.62l-3.4,1.65l-0.12-0.25l3.4-1.65l0.2,0.11
			L31.17,12.62L31.17,12.62z M31.05,12.36l0.18-0.09l0.02,0.19L31.05,12.36L31.05,12.36z M31.18,14.16l-0.21-1.65l0.28-0.04
			l0.21,1.65l-0.2,0.14L31.18,14.16L31.18,14.16z M31.46,14.12l0.03,0.26l-0.23-0.11L31.46,14.12L31.46,14.12z M27.97,12.36
			l3.4,1.65l-0.12,0.25l-3.4-1.65l-0.08-0.14L27.97,12.36L27.97,12.36z M27.77,12.47l0.02-0.2l0.18,0.09L27.77,12.47L27.77,12.47z
			 M25.21,32.73l0.4-2.95l0.28,0.04l-0.4,2.95L25.21,32.73L25.21,32.73z M33.61,32.73l-0.47-2.94l0.28-0.04l0.47,2.94L33.61,32.73z"
			/>
	</g>
	<g>
		<path class="st1" d="M29.51,12.03l0.34-0.14c0.24,0.03,0.38,0.08,0.38,0.14c0,0.09-0.32,0.15-0.72,0.15
			c-0.4,0-0.72-0.07-0.72-0.15c0-0.06,0.15-0.11,0.39-0.14L29.51,12.03z"/>
		<path class="st0" d="M29.86,11.92l-0.34,0.14L29.5,12l0.34-0.14l0.01,0L29.86,11.92L29.86,11.92z M29.83,11.87L29.83,11.87l0.01,0
			L29.83,11.87L29.83,11.87z M30.26,12.03H30.2l0,0l0,0l0,0l0,0l0,0l0,0l0,0l0,0l0,0l-0.01,0l-0.01,0l-0.01,0l-0.01,0l-0.01,0
			l-0.01,0l-0.01,0l-0.01,0l-0.01,0l-0.01,0l-0.01,0l-0.01,0l-0.01,0l-0.02,0l-0.02,0l-0.02,0l-0.02,0l-0.02,0l-0.02,0l-0.02,0
			l-0.02,0l-0.02,0l-0.02,0l-0.02,0l0.01-0.06l0.02,0l0.02,0l0.02,0l0.02,0l0.02,0l0.02,0l0.02,0l0.02,0l0.02,0l0.02,0l0.02,0
			l0.02,0l0.02,0l0.01,0l0.01,0l0.01,0l0.01,0l0.01,0l0.01,0.01l0.01,0.01l0.01,0.01l0.01,0.01l0.01,0.01l0.01,0.01l0.01,0.01
			l0.01,0.01l0.01,0.01l0.01,0.01l0,0.01l0,0.01l0,0.01L30.26,12.03L30.26,12.03L30.26,12.03z M29.51,12.21v-0.06l0,0l0.04,0l0.04,0
			l0.04,0l0.04,0l0.03,0l0.03,0l0.03,0l0.03,0l0.03,0l0.03,0l0.03,0l0.03,0l0.03,0l0.03,0l0.03,0l0.02-0.01l0.02-0.01l0.02-0.01
			l0.02-0.01l0.02-0.01l0.02-0.01l0.02-0.01l0.01-0.01l0.01-0.01l0.01-0.01l0.01-0.01l0.01-0.01l0.01-0.01l0,0l0,0l0,0l0,0h0.06
			l0,0.01l0,0.01l-0.01,0.01l-0.01,0.01l-0.01,0.01l-0.01,0.01l-0.01,0.01l-0.01,0.01l-0.02,0.01l-0.02,0.01l-0.02,0.01l-0.02,0.01
			l-0.02,0.01l-0.02,0.01l-0.02,0.01l-0.02,0.01L30,12.17l-0.03,0l-0.03,0l-0.03,0l-0.03,0l-0.03,0l-0.03,0l-0.03,0l-0.03,0l-0.03,0
			l-0.03,0l-0.04,0l-0.04,0l-0.04,0l-0.04,0L29.51,12.21L29.51,12.21L29.51,12.21z M28.75,12.03h0.06l0,0l0,0l0,0l0,0l0,0l0.01,0.01
			l0.01,0.01l0.01,0.01l0.01,0.01l0.01,0.01l0.01,0.01l0.02,0.01l0.02,0.01l0.02,0.01l0.02,0.01l0.02,0.01L29,12.11l0.02,0.01
			l0.03,0l0.03,0l0.03,0l0.03,0l0.03,0l0.03,0l0.03,0l0.03,0l0.03,0l0.03,0l0.03,0l0.04,0l0.04,0l0.04,0l0.04,0v0.06l-0.04,0
			l-0.04,0l-0.04,0l-0.04,0l-0.04,0l-0.03,0l-0.03,0l-0.03,0l-0.03,0l-0.03,0l-0.03,0l-0.03,0l-0.03,0l-0.03,0l-0.03,0l-0.03-0.01
			l-0.02-0.01l-0.02-0.01l-0.02-0.01l-0.02-0.01l-0.02-0.01l-0.02-0.01l-0.02-0.01l-0.02-0.01l-0.01-0.01L28.8,12.1l-0.01-0.01
			l-0.01-0.01l-0.01-0.01l-0.01-0.01l0-0.01L28.75,12.03L28.75,12.03L28.75,12.03z M29.19,11.86l-0.02,0.06l0.02,0l-0.02,0l-0.02,0
			l-0.02,0l-0.02,0l-0.02,0l-0.02,0l-0.02,0l-0.02,0l-0.02,0l-0.02,0l-0.02,0l-0.02,0l-0.01,0l-0.01,0l-0.01,0l-0.01,0l-0.01,0
			l-0.01,0l-0.01,0l-0.01,0l-0.01,0l-0.01,0l-0.01,0l-0.01,0l0,0l0,0l0,0l0,0l0,0l0,0l0,0l0,0h-0.06l0-0.01l0-0.01l0-0.01l0-0.01
			l0.01-0.01l0.01-0.01l0.01-0.01l0.01-0.01l0.01-0.01l0.01-0.01l0.01-0.01l0.01-0.01l0.01-0.01l0.01-0.01l0.01,0l0.01,0l0.01,0
			l0.01,0l0.01,0l0.02,0l0.02,0l0.02,0l0.02,0l0.02,0l0.02,0l0.02,0l0.02,0l0.02,0l0.02,0l0.02,0l0.02,0l0.02,0L29.19,11.86
			L29.19,11.86z M29.17,11.86L29.17,11.86l0.02,0L29.17,11.86L29.17,11.86z M29.5,12.06l-0.33-0.14l0.02-0.06L29.52,12l0,0.06
			L29.5,12.06L29.5,12.06z M29.52,12.06l-0.01,0l-0.01,0L29.52,12.06z"/>
	</g>
	<g>
		<path class="st0" d="M29.07,11.94c-0.03,0.16,0.92,0.16,0.9,0l-0.37-1.29c0-0.18-0.34-0.18-0.34,0L29.07,11.94z"/>
		<path class="st0" d="M29.94,11.95L30,11.93l0,0l0,0.03l-0.01,0.02L29.97,12l-0.02,0.01l-0.02,0.01l-0.03,0.01l-0.03,0.01
			l-0.03,0.01l-0.03,0.01l-0.04,0.01l-0.04,0.01l-0.04,0l-0.04,0l-0.04,0l-0.04,0l-0.04,0l-0.04,0l-0.04,0l-0.04,0l-0.04,0l-0.04,0
			l-0.04-0.01l-0.04-0.01l-0.03-0.01l-0.03-0.01l-0.03-0.01l-0.03-0.01l-0.02-0.01L29.07,12l-0.02-0.02l-0.01-0.02v-0.03l0.06,0.01
			l0,0l0,0l0.01,0.01l0.01,0.01l0.02,0.01l0.02,0.01l0.03,0.01L29.21,12L29.24,12l0.03,0.01l0.04,0l0.04,0l0.04,0l0.04,0l0.04,0
			l0.04,0l0.04,0l0.04,0l0.04,0l0.04,0l0.04,0l0.04,0L29.8,12L29.83,12l0.03-0.01l0.03-0.01l0.02-0.01l0.02-0.01L29.94,11.95
			L29.94,11.95L29.94,11.95L29.94,11.95L29.94,11.95L29.94,11.95z M30,11.93L30,11.93L30,11.93L30,11.93L30,11.93z M29.63,10.64
			L30,11.93l-0.06,0.02l-0.37-1.29l0-0.01L29.63,10.64L29.63,10.64z M29.57,10.65L29.57,10.65L29.57,10.65L29.57,10.65L29.57,10.65z
			 M29.3,10.65l-0.06-0.01l0,0l0-0.02l0-0.02l0.01-0.02l0.01-0.02l0.01-0.02l0.01-0.01l0.01-0.01l0.01-0.01l0.01-0.01l0.02-0.01
			l0.02-0.01l0.02-0.01l0.02,0l0.02,0l0.02,0l0.02,0l0.02,0l0.02,0l0.02,0l0.02,0l0.02,0.01l0.02,0.01l0.02,0.01l0.01,0.01
			l0.01,0.01l0.01,0.01l0.01,0.01l0.01,0.02l0.01,0.02l0.01,0.02l0,0.02l0,0.02h-0.06l0-0.01l0-0.01l0-0.01l0-0.01l-0.01-0.01
			l-0.01-0.01l-0.01-0.01l-0.01-0.01l-0.01-0.01l-0.01-0.01l-0.01,0l-0.01,0l-0.01,0l-0.01,0l-0.01,0l-0.01,0l-0.01,0l-0.01,0
			l-0.01,0l-0.01,0l-0.01,0l-0.01,0l-0.01,0.01l-0.01,0.01l-0.01,0.01l-0.01,0.01l-0.01,0.01l-0.01,0.01l0,0.01l0,0.01l0,0.01
			L29.3,10.65L29.3,10.65L29.3,10.65z M29.3,10.64L29.3,10.64L29.3,10.64L29.3,10.64L29.3,10.64z M29.04,11.93l0.19-1.29l0.06,0.01
			l-0.19,1.29l0,0L29.04,11.93L29.04,11.93z M29.1,11.94L29.1,11.94L29.1,11.94L29.1,11.94z"/>
	</g>
	<g>
		<path class="st0" d="M29.68,10.61c0.08,0.04,0.27,0.13,0.36,0.17c0.24,0.11,0.41-0.25,0.17-0.36l-0.36-0.17
			c-0.04-0.02-0.09,0.01-0.14,0.05l-0.09-0.04c-0.03-0.01-0.11,0.16-0.08,0.18l0.09,0.04C29.64,10.54,29.64,10.59,29.68,10.61z"/>
		<path class="st0" d="M30.05,10.76l-0.03,0.06l0,0l-0.01,0l-0.01,0l-0.01,0l-0.01,0l-0.01,0l-0.01-0.01l-0.01-0.01l-0.01-0.01
			l-0.01-0.01l-0.01-0.01l-0.01-0.01l-0.01-0.01l-0.01-0.01l-0.01-0.01l-0.01-0.01l-0.01-0.01l-0.01-0.01l-0.01-0.01l-0.01-0.01
			L29.8,10.7l-0.01-0.01l-0.01-0.01l-0.01-0.01l-0.01-0.01l-0.01-0.01l-0.01-0.01l-0.01-0.01l-0.01,0l-0.01,0l-0.01,0l-0.01,0
			l-0.01,0l0.03-0.06l0.01,0l0.01,0l0.01,0l0.01,0l0.01,0l0.01,0.01l0.01,0.01l0.01,0.01l0.01,0.01l0.01,0.01l0.01,0.01l0.01,0.01
			l0.01,0.01l0.01,0.01l0.01,0.01l0.01,0.01l0.01,0.01l0.01,0.01l0.01,0.01l0.01,0.01l0.01,0.01l0.01,0.01l0.01,0.01l0.01,0.01
			l0.01,0.01L30,10.73l0.01,0.01l0.01,0l0.01,0l0.01,0L30.05,10.76L30.05,10.76L30.05,10.76L30.05,10.76z M30.03,10.81L30.03,10.81
			L30.03,10.81L30.03,10.81L30.03,10.81z M30.2,10.45l0.03-0.05l0,0l0.02,0.01l0.02,0.01l0.02,0.02l0.02,0.02l0.01,0.02l0.01,0.02
			l0.01,0.02l0.01,0.02l0,0.02l0,0.02l0,0.02l0,0.02l0,0.02l0,0.02l-0.01,0.02l-0.01,0.02l-0.01,0.02l-0.01,0.02l-0.01,0.02
			l-0.01,0.02l-0.02,0.01l-0.02,0.01l-0.02,0.01l-0.02,0.01l-0.02,0.01l-0.02,0.01l-0.02,0l-0.02,0l-0.02,0l-0.02,0l-0.02-0.01
			l-0.02-0.01l0.03-0.06l0.02,0.01l0.02,0.01l0.02,0l0.02,0l0.02,0l0.02,0l0.02,0l0.01-0.01l0.01-0.01l0.01-0.01l0.01-0.01
			l0.01-0.01l0.01-0.01l0.01-0.01l0.01-0.01l0.01-0.01l0.01-0.01l0.01-0.02l0-0.02l0-0.02l0-0.02l0-0.02l0-0.02l0-0.01l-0.01-0.01
			l-0.01-0.01l-0.01-0.01l-0.01-0.01l-0.01-0.01l-0.01-0.01l-0.02-0.01L30.2,10.45L30.2,10.45L30.2,10.45z M30.2,10.45L30.2,10.45
			L30.2,10.45L30.2,10.45L30.2,10.45z M29.87,10.23l0.36,0.17l-0.03,0.05l-0.36-0.17L29.87,10.23L29.87,10.23L29.87,10.23z
			 M29.87,10.23L29.87,10.23L29.87,10.23L29.87,10.23L29.87,10.23z M29.71,10.33l0.03-0.06l-0.03,0l0,0l0,0l0,0l0,0l0,0l0,0l0,0l0,0
			l0,0l0,0l0,0l0,0l0,0l0.01,0l0.01,0l0.01,0l0.01,0l0.01,0l0.01,0l0.01,0l0.01,0l0.01,0l0.01,0l0.01,0l0.01,0l0.01,0l0.01,0l0.01,0
			l0.01,0l0.01,0l0.01,0l0.01,0l-0.03,0.06l0,0l0,0l0,0l0,0l0,0l0,0h0l0,0l0,0l0,0l0,0l0,0l0,0l0,0l0,0l0,0l0,0l0,0l0,0l0,0l0,0l0,0
			l0,0l0,0l0,0l0,0l0,0l0,0l0,0l0,0l0,0l0,0L29.71,10.33L29.71,10.33z M29.74,10.33l-0.01,0.01l-0.02-0.01L29.74,10.33L29.74,10.33z
			 M29.64,10.23l0.09,0.04l-0.03,0.06l-0.09-0.04L29.64,10.23L29.64,10.23L29.64,10.23z M29.56,10.41l-0.03,0.06l0,0l-0.01-0.01
			l-0.01-0.01l0-0.01l0-0.01l0-0.01l0-0.01l0-0.01l0-0.01l0-0.01l0-0.01l0-0.01l0-0.01l0-0.01l0-0.01l0-0.01l0-0.01l0-0.01l0-0.01
			l0-0.01l0-0.01l0-0.01l0-0.01l0.01-0.01l0.01-0.01l0.01-0.01l0.01-0.01l0.01-0.01l0.01-0.01l0.01,0l0.01,0l0.01,0l0.01,0
			l-0.03,0.06l0.01,0l0.01,0l0,0l0,0l0,0l0,0l0,0l0,0l0,0l0,0.01l0,0.01l0,0.01l0,0.01l0,0.01l0,0.01l0,0.01l0,0.01l0,0.01l0,0.01
			l0,0.01l0,0.01l0,0.01l0,0.01l0,0.01l0,0.01l0,0l0,0v0v0L29.56,10.41L29.56,10.41L29.56,10.41L29.56,10.41L29.56,10.41z
			 M29.53,10.47L29.53,10.47L29.53,10.47L29.53,10.47L29.53,10.47z M29.62,10.51l-0.09-0.04l0.03-0.06l0.09,0.04l0.02,0.03
			L29.62,10.51L29.62,10.51z M29.65,10.45l0.02,0.01l0,0.02L29.65,10.45L29.65,10.45z M29.7,10.59l-0.03,0.06l0,0l-0.01,0l-0.01,0
			l-0.01,0l0,0l0,0l0,0l0,0l0,0l0,0l0-0.01l0-0.01l0-0.01l0-0.01l0-0.01l0-0.01l0-0.01l0-0.01l0-0.01l0-0.01l0-0.01l0-0.01l0-0.01
			l0-0.01l0-0.01l0-0.01l0-0.01l0-0.01l0-0.01l0-0.01l0-0.01l0-0.01l0-0.01l0.06,0l0,0.01l0,0.01l0,0.01l0,0.01l0,0.01l0,0.01l0,0
			l0,0l0,0l0,0l0,0l0,0l0,0l0,0l0,0l0,0l0,0l0,0l0,0l0,0l0,0l0,0l0,0l0,0l0,0l0,0L29.7,10.59L29.7,10.59L29.7,10.59L29.7,10.59
			L29.7,10.59L29.7,10.59L29.7,10.59L29.7,10.59z M29.67,10.64L29.67,10.64L29.67,10.64L29.67,10.64z"/>
	</g>
	<g>
		<path class="st5" d="M29.6,9.62c0.4,0.16,0.18,1.2-0.39,1.2L29.6,9.62z"/>
		<path class="st5" d="M29.19,10.81l0.06,0.02l-0.03-0.04l0.05,0l0.05-0.01l0.04-0.01l0.04-0.02l0.04-0.02l0.04-0.03l0.04-0.03
			l0.03-0.03l0.03-0.04l0.03-0.04l0.03-0.04l0.03-0.05l0.02-0.05l0.02-0.05l0.02-0.05l0.02-0.05l0.01-0.05l0.01-0.05l0.01-0.05
			l0-0.05l0-0.05l0-0.05l-0.01-0.05l-0.01-0.04l-0.01-0.04l-0.01-0.04l-0.02-0.04L29.7,9.74l-0.02-0.03l-0.03-0.02l-0.03-0.02
			l-0.03-0.02l0.02-0.06l0.04,0.02l0.04,0.02l0.03,0.03l0.03,0.03l0.02,0.04l0.02,0.04l0.02,0.04l0.01,0.05l0.01,0.05l0.01,0.05
			l0,0.05l0,0.05l0,0.05l-0.01,0.05l-0.01,0.05l-0.01,0.05l-0.02,0.05l-0.02,0.05l-0.02,0.05l-0.02,0.05l-0.03,0.05l-0.03,0.05
			l-0.03,0.04l-0.04,0.04l-0.04,0.04l-0.04,0.03l-0.04,0.03l-0.05,0.03l-0.05,0.02l-0.05,0.02l-0.05,0.01l-0.06,0L29.19,10.81
			L29.19,10.81z M29.22,10.85h-0.04l0.01-0.04L29.22,10.85L29.22,10.85z M29.63,9.63l-0.39,1.2l-0.06-0.02l0.39-1.2l0.04-0.02
			L29.63,9.63L29.63,9.63z M29.57,9.62l0.01-0.03l0.03,0.01L29.57,9.62z"/>
	</g>
	<g>
		<path class="st8" d="M29.25,8.91c0.32,0,0.41,0.52,0.21,1.15c-0.2,0.64-0.63,1.15-0.95,1.15c-0.32,0-0.41-0.52-0.21-1.15
			C28.5,9.42,28.93,8.91,29.25,8.91z"/>
		<path class="st8" d="M29.49,10.07l-0.06-0.02l0,0l0.02-0.06l0.02-0.06l0.01-0.06l0.01-0.06l0.01-0.06l0.01-0.05l0.01-0.05
			l0.01-0.05l0-0.05l0-0.05l0-0.05l0-0.05l0-0.04l0-0.04l0-0.04l-0.01-0.04l-0.01-0.04L29.5,9.18l-0.01-0.03l-0.01-0.03l-0.01-0.03
			l-0.01-0.03l-0.02-0.02l-0.02-0.02L29.4,9l-0.02-0.02l-0.02-0.01l-0.02-0.01l-0.02-0.01L29.3,8.94l-0.02,0l-0.03,0l0-0.06l0.03,0
			l0.03,0l0.03,0.01l0.03,0.01l0.03,0.01l0.03,0.02l0.02,0.02l0.02,0.02L29.49,9l0.02,0.03l0.02,0.03l0.01,0.03l0.01,0.03l0.01,0.04
			l0.01,0.04l0.01,0.04l0.01,0.04l0,0.04l0,0.04l0,0.05v0.05l0,0.05l0,0.05l0,0.05l-0.01,0.05l-0.01,0.05l-0.01,0.06l-0.01,0.06
			l-0.01,0.06l-0.02,0.06l-0.02,0.06L29.49,10.07L29.49,10.07L29.49,10.07z M28.51,11.25l0-0.06l0,0l0.03,0l0.03,0l0.03-0.01
			l0.03-0.01l0.03-0.01l0.03-0.01l0.03-0.02l0.03-0.02l0.03-0.02l0.03-0.02l0.03-0.03L28.88,11l0.03-0.03l0.03-0.03l0.03-0.04
			L29,10.86l0.03-0.04l0.03-0.04l0.03-0.04l0.03-0.04l0.03-0.05l0.03-0.05l0.03-0.05l0.03-0.05l0.03-0.05l0.03-0.05l0.03-0.05
			l0.02-0.06l0.02-0.06l0.02-0.06l0.02-0.06l0.02-0.06l0.06,0.02l-0.02,0.06l-0.02,0.06l-0.02,0.06l-0.02,0.06l-0.02,0.06
			l-0.03,0.06l-0.03,0.05l-0.03,0.05l-0.03,0.05l-0.03,0.05l-0.03,0.05l-0.03,0.05l-0.03,0.05l-0.03,0.04l-0.03,0.04l-0.03,0.04
			l-0.03,0.04l-0.03,0.04l-0.03,0.03l-0.03,0.03l-0.03,0.03l-0.03,0.03l-0.03,0.03l-0.03,0.02l-0.03,0.02l-0.03,0.02l-0.03,0.02
			l-0.03,0.01l-0.03,0.01l-0.03,0.01l-0.03,0L28.51,11.25L28.51,11.25L28.51,11.25z M28.27,10.05l0.06,0.02l0,0l-0.02,0.06
			l-0.02,0.06l-0.01,0.06l-0.01,0.06l-0.01,0.06l-0.01,0.05l-0.01,0.05l-0.01,0.05l0,0.05l0,0.05l0,0.05l0,0.05l0,0.04l0,0.04
			l0,0.04l0.01,0.04l0.01,0.04l0.01,0.03l0.01,0.03l0.01,0.03l0.01,0.03l0.01,0.03l0.02,0.02l0.02,0.02l0.02,0.02l0.02,0.02
			l0.02,0.01l0.02,0.01l0.02,0.01l0.02,0.01l0.02,0l0.03,0l0,0.06l-0.03,0l-0.03-0.01l-0.03-0.01l-0.03-0.01l-0.03-0.01l-0.03-0.02
			l-0.02-0.02l-0.02-0.02l-0.02-0.03l-0.02-0.03l-0.02-0.03l-0.01-0.03L28.21,11l-0.01-0.04l-0.01-0.04l-0.01-0.04l-0.01-0.04
			l0-0.04l0-0.04l0-0.05l0-0.05l0-0.05l0-0.05l0-0.05l0.01-0.05l0.01-0.05l0.01-0.06l0.01-0.06l0.01-0.06l0.02-0.06l0.02-0.06
			L28.27,10.05L28.27,10.05L28.27,10.05z M29.25,8.88l0,0.06l0,0l-0.03,0l-0.03,0l-0.03,0.01l-0.03,0.01l-0.03,0.01l-0.03,0.01
			L29.04,9l-0.03,0.02l-0.03,0.02l-0.03,0.02L28.92,9.1l-0.03,0.03l-0.03,0.03l-0.03,0.03l-0.03,0.04l-0.03,0.04L28.72,9.3
			l-0.03,0.04l-0.03,0.04l-0.03,0.04L28.6,9.48l-0.03,0.05l-0.03,0.05l-0.03,0.05l-0.03,0.05l-0.03,0.05l-0.03,0.05l-0.02,0.06
			L28.39,9.9l-0.02,0.06l-0.02,0.06l-0.02,0.06l-0.06-0.02l0.02-0.06l0.02-0.06l0.02-0.06l0.02-0.06l0.02-0.06l0.03-0.06l0.03-0.05
			l0.03-0.05l0.03-0.05l0.03-0.05l0.03-0.05l0.03-0.05l0.03-0.05l0.03-0.04l0.03-0.04l0.03-0.04l0.03-0.04l0.03-0.04l0.03-0.03
			l0.03-0.03l0.03-0.03l0.03-0.03L28.94,9l0.03-0.02l0.03-0.02l0.03-0.02l0.03-0.02l0.03-0.01l0.03-0.01l0.03-0.01l0.03,0
			L29.25,8.88L29.25,8.88z"/>
	</g>
	<g>
		<path class="st1" d="M29.01,10.2c0.04-0.02,0.07-0.07,0.07-0.12l-0.99-0.44c-0.03,0-0.12,0.14-0.1,0.16
			c0.02,0.03,0.07,0.06,0.09,0.04c0.01,0,0.06-0.07,0.06-0.07L29.01,10.2z"/>
		<path class="st0" d="M29.07,10.11l0.02-0.06l0.02,0.03l0,0.01l0,0.01l0,0.01l0,0.01l0,0.01l0,0.01l0,0.01l0,0.01l0,0.01l0,0.01
			l0,0.01l0,0.01l0,0.01l0,0.01l0,0.01l0,0.01l0,0l0,0l0,0l0,0l0,0l0,0l0,0l0,0l0,0l0,0l0,0l0,0l0,0l-0.01,0l-0.01,0l-0.01,0
			L29,10.17l0,0l0,0l0,0l0,0l0,0l0,0l0,0l0,0l0,0l0,0l0,0l0,0l0,0l0,0l0,0l0,0l0,0l0,0l0,0l0,0l0,0l0,0l0,0l0,0l0,0l0,0l0,0l0,0l0,0
			l0,0l0,0l0,0L29.07,10.11L29.07,10.11z M29.09,10.05l0.02,0.01v0.02L29.09,10.05L29.09,10.05z M28.1,9.61l0.99,0.44l-0.02,0.06
			l-0.99-0.44l0.01-0.06L28.1,9.61L28.1,9.61z M28.09,9.61L28.09,9.61l0.01,0L28.09,9.61L28.09,9.61z M28.02,9.78l-0.05,0.04
			l0.01,0.01l-0.01-0.01L27.96,9.8l0-0.01l0-0.01l0-0.01l0-0.01l0-0.01l0-0.01l0-0.01l0-0.01l0-0.01l0-0.01l0-0.01l0-0.01l0-0.01
			l0-0.01l0-0.01l0-0.01l0.01-0.01l0.01-0.01l0.01-0.01l0.01-0.01l0.01-0.01l0.01-0.01l0.01-0.01l0.01-0.01l0.01,0l0.01,0l0.01,0
			l0.01,0l0.01,0l0.01,0l0,0.06l0,0l0,0l0,0l0,0l0,0l0,0l0,0l0,0l0,0l0,0.01l0,0.01l0,0.01l0,0.01l0,0.01l0,0.01l0,0.01l0,0.01
			l0,0.01l0,0.01l0,0.01l0,0.01l0,0.01L28.02,9.78L28.02,9.78L28.02,9.78L28.02,9.78L28.02,9.78L28.02,9.78L28.02,9.78L28.02,9.78
			L28.02,9.78L28.02,9.78L28.02,9.78L28.02,9.78z M28.01,9.77L28.01,9.77L28.01,9.77L28.01,9.77L28.01,9.77z M28.1,9.81l-0.02,0.06
			l0.03-0.01l-0.01,0l-0.01,0l-0.01,0l-0.01,0l-0.01,0l-0.01,0l-0.01,0l-0.01,0l0,0l0,0l0,0l0,0l0,0l0,0l0,0l0,0l0,0l0,0l0,0l0,0
			l0,0l0,0l0,0l0,0l0,0l0,0l0,0l0,0l0,0l0,0l0,0l0,0l0.05-0.04l0,0l0,0l0,0l0,0l0,0l0,0l0,0l0,0l0,0l0,0l0,0l0,0l0,0l0,0l0,0l0,0
			l0,0l0,0l0,0l0,0l0,0l0,0l0,0l0,0l0,0l0,0l0,0l0,0l0,0l0,0l0,0l0,0L28.1,9.81L28.1,9.81z M28.07,9.81l0.01-0.01l0.02,0.01
			L28.07,9.81L28.07,9.81z M28.16,9.74L28.13,9.8l0.04-0.01l0,0l0,0l0,0l0,0l0,0l0,0l0,0l0,0l0,0l0,0l0,0l0,0l0,0l0,0l0,0l0,0l0,0
			l0,0l0,0l0,0l0,0l0,0l0,0l0,0l0,0l0,0l0,0l0,0l0,0l-0.01,0l-0.01,0l-0.01,0l0.02-0.06l-0.01,0l-0.01,0l0,0l0,0l0,0l0,0l0,0l0,0
			l0,0l0,0l0,0l0,0l0,0l0,0l0,0l0,0l0,0l0,0l0,0l0,0l0,0l0,0l0,0l0,0l0,0l0,0l0,0l0,0l0,0l0,0l0,0l0,0L28.16,9.74L28.16,9.74z
			 M28.12,9.75l0.01-0.02l0.02,0.01L28.12,9.75L28.12,9.75z M28.99,10.23L28.13,9.8l0.03-0.05l0.86,0.43l0,0.06L28.99,10.23
			L28.99,10.23z M29.02,10.23l-0.01,0.01l-0.01-0.01L29.02,10.23z"/>
	</g>
	<g>
		<path class="st1" d="M28.78,12.02c0.21,0.15,1.22,0.15,1.44,0v0.31c0,0.21-1.44,0.21-1.44,0V12.02z"/>
		<path class="st0" d="M30.26,12.02H30.2l0.05,0.03l-0.03,0.02l-0.03,0.01l-0.03,0.01l-0.04,0.01l-0.04,0.01l-0.04,0.01l-0.05,0.01
			l-0.05,0.01l-0.05,0.01l-0.05,0.01l-0.05,0.01l-0.06,0l-0.06,0l-0.06,0l-0.06,0l-0.06,0l-0.06,0l-0.06,0l-0.06,0l-0.06,0l-0.05,0
			l-0.05-0.01l-0.05-0.01l-0.05-0.01l-0.05-0.01l-0.04-0.01l-0.04-0.01l-0.04-0.01l-0.04-0.01l-0.03-0.01l-0.03-0.01l-0.02-0.02
			l0.04-0.05l0.02,0.01l0.02,0.01l0.03,0.01l0.03,0.01l0.04,0.01l0.04,0.01l0.04,0.01l0.05,0.01l0.05,0.01l0.05,0.01l0.05,0l0.05,0
			l0.05,0l0.06,0l0.06,0l0.06,0l0.06,0l0.06,0l0.06,0l0.06,0l0.05,0l0.05,0l0.05-0.01l0.05-0.01l0.05-0.01l0.04-0.01l0.04-0.01
			l0.04-0.01l0.03-0.01l0.03-0.01l0.03-0.01l0.02-0.01L30.26,12.02L30.26,12.02z M30.21,11.99l0.05-0.03v0.06L30.21,11.99
			L30.21,11.99z M30.2,12.33v-0.31h0.06v0.31l0,0H30.2L30.2,12.33z M28.75,12.33h0.06l0,0l0,0.01l0.01,0.01l0.01,0.01l0.02,0.01
			l0.03,0.01l0.04,0.01l0.04,0.01l0.05,0.01l0.05,0.01l0.06,0.01l0.06,0.01l0.06,0.01l0.06,0l0.07,0l0.07,0l0.07,0l0.07,0l0.07,0
			l0.07,0l0.06,0l0.06-0.01l0.06-0.01l0.06-0.01L30,12.42l0.05-0.01l0.04-0.01l0.04-0.01l0.03-0.01l0.02-0.01l0.01-0.01l0.01-0.01
			l0-0.01h0.06l-0.01,0.03l-0.02,0.03l-0.02,0.02l-0.03,0.02l-0.04,0.02l-0.04,0.01l-0.05,0.01l-0.05,0.01l-0.05,0.01l-0.06,0.01
			l-0.06,0.01l-0.06,0.01l-0.07,0l-0.07,0l-0.07,0l-0.07,0l-0.07,0l-0.07,0l-0.07,0l-0.07,0l-0.06-0.01l-0.06-0.01l-0.06-0.01
			L29,12.47l-0.05-0.01l-0.05-0.01l-0.04-0.01l-0.04-0.02L28.8,12.4l-0.02-0.02l-0.02-0.03L28.75,12.33L28.75,12.33L28.75,12.33z
			 M28.81,12.02v0.31h-0.06v-0.31l0.05-0.02L28.81,12.02L28.81,12.02z M28.75,12.02v-0.06l0.05,0.04L28.75,12.02z"/>
	</g>
	<g>
		<path class="st1" d="M28.05,9.72c0.02-0.04,0.05-0.07,0.06-0.07c0.02,0,0.01,0.03-0.01,0.07c-0.02,0.04-0.05,0.07-0.06,0.07
			C28.03,9.79,28.03,9.76,28.05,9.72z"/>
		<path class="st0" d="M28.11,9.63l0,0.06l0,0l0,0l0,0l0,0l0,0l0,0l0,0l0,0l0,0l0,0l0,0l0,0l0,0l0,0l0,0l0,0l0,0l0,0l0,0l0,0l0,0
			l0,0l0,0l0,0l0,0l0,0l0,0l0,0l0,0l0,0l0,0l0,0l0,0l-0.05-0.03l0,0l0,0l0,0l0,0l0,0l0,0l0,0l0,0l0,0l0,0l0,0l0,0l0,0l0,0l0,0l0,0
			l0,0l0,0l0,0l0,0l0,0l0,0l0,0l0,0l0,0l0,0l0,0l0,0l0,0L28.11,9.63L28.11,9.63L28.11,9.63L28.11,9.63L28.11,9.63z M28.13,9.74
			l-0.05-0.03l0,0l0,0l0,0l0,0l0,0l0,0l0,0l0,0l0,0l0,0l0,0l0,0l0,0l0,0l0,0l0,0l0,0l0,0l0,0l0,0l0,0l0,0l0,0l0,0l0,0l0,0l0,0l0,0
			l0,0l0,0l0,0l0,0l0,0l0-0.06l0.01,0l0.01,0l0.01,0l0,0l0,0l0,0l0,0l0,0l0,0l0,0l0,0l0,0l0,0l0,0l0,0l0,0l0,0l0,0l0,0l0,0l0,0l0,0
			l0,0l0,0l0,0l0,0l0,0l0,0l0,0L28.13,9.74L28.13,9.74L28.13,9.74L28.13,9.74L28.13,9.74z M28.04,9.82l0-0.06l0,0l0,0l0,0l0,0l0,0
			l0,0l0,0l0,0l0,0l0,0l0,0l0,0l0,0l0,0l0,0l0,0l0,0l0,0l0,0l0,0l0,0l0,0l0,0l0,0l0,0l0,0l0,0l0,0l0,0l0,0l0,0l0,0l0,0l0.05,0.03
			l0,0l0,0l0,0l0,0l0,0l0,0l0,0l0,0l0,0l0,0l0,0l0,0l0,0l0,0l0,0l0,0l0,0l0,0l0,0l0,0l0,0l0,0l0,0l0,0l0,0l0,0l0,0l0,0l0,0
			L28.04,9.82L28.04,9.82L28.04,9.82L28.04,9.82L28.04,9.82z M28.02,9.71l0.05,0.03l0,0l0,0l0,0l0,0l0,0l0,0l0,0l0,0l0,0l0,0l0,0
			l0,0l0,0l0,0l0,0l0,0l0,0l0,0v0v0l0,0l0,0l0,0l0,0l0,0l0,0l0,0l0,0l0,0l0,0l0,0l0,0l0,0l0,0.06l-0.01,0l-0.01,0l-0.01,0l0,0l0,0
			l0,0l0,0l0,0l0,0l0,0l0,0l0,0l0,0l0,0v0l0,0l0,0l0,0l0,0l0,0l0,0l0,0l0,0l0,0l0,0l0,0l0,0l0,0l0,0L28.02,9.71L28.02,9.71
			L28.02,9.71L28.02,9.71z"/>
	</g>
	<line class="st9" x1="28.3" y1="9.76" x2="29.05" y2="10.11"/>
	<line class="st9" x1="28.16" y1="9.71" x2="28.28" y2="9.76"/>
	<path class="st0" d="M38.79,24.67h1.81c0,0.15,0,0.3,0,0.46c-0.24,0-0.24,0.46-0.24,0.46l0.5,7.22h-2.33
		c0.17-2.41,0.35-4.81,0.52-7.22c0,0,0-0.46-0.26-0.46V24.67z"/>
	<rect x="29.61" y="32.8" class="st0" width="11.37" height="4.88"/>
	<rect x="31.15" y="34.74" class="st1" width="3.64" height="1.82"/>
	<rect x="35.86" y="34.74" class="st1" width="3.64" height="1.82"/>
	<line class="st10" x1="29.56" y1="33.57" x2="41.06" y2="33.57"/>
	<path class="st0" d="M35.38,26.4h1.42c0,0.12,0,0.24,0,0.36c-0.19,0-0.19,0.36-0.19,0.36l0.4,5.69h-1.83
		c0.14-1.9,0.27-3.79,0.41-5.69c0,0,0-0.36-0.21-0.36V26.4z"/>
	<g>
		<polygon class="st5" points="29.64,33.06 29.64,32.7 30.59,31.98 30.59,32.7 31.51,31.99 31.51,32.71 32.46,31.99 32.46,32.71 
			33.4,31.98 33.4,32.71 34.35,31.97 34.35,32.71 35.29,31.98 35.29,32.7 36.25,31.98 36.25,32.71 37.19,31.99 37.19,32.7 
			38.14,31.98 38.14,32.71 39.07,31.99 39.07,32.71 40.04,31.97 40.04,32.71 40.98,31.99 40.98,33.06 		"/>
		<path class="st5" d="M29.76,32.7v0.36h-0.25V32.7l0.05-0.1L29.76,32.7L29.76,32.7z M29.52,32.7v-0.06l0.05-0.04L29.52,32.7
			L29.52,32.7z M30.66,32.08l-0.95,0.72l-0.15-0.19l0.95-0.72l0.2,0.1L30.66,32.08L30.66,32.08z M30.51,31.88l0.2-0.15v0.25
			L30.51,31.88L30.51,31.88z M30.46,32.7v-0.72h0.25v0.72l-0.05,0.1L30.46,32.7L30.46,32.7z M30.66,32.8l-0.2,0.15V32.7L30.66,32.8
			L30.66,32.8z M31.58,32.08l-0.92,0.72l-0.15-0.19l0.92-0.72l0.2,0.1L31.58,32.08L31.58,32.08z M31.43,31.89l0.2-0.15v0.25
			L31.43,31.89L31.43,31.89z M31.39,32.71v-0.72h0.25v0.72l-0.05,0.1L31.39,32.71L31.39,32.71z M31.58,32.81l-0.2,0.15v-0.25
			L31.58,32.81L31.58,32.81z M32.53,32.08l-0.95,0.72l-0.15-0.19l0.95-0.72l0.2,0.1L32.53,32.08L32.53,32.08z M32.38,31.89l0.2-0.15
			v0.25L32.38,31.89L32.38,31.89z M32.33,32.71v-0.72h0.25v0.72l-0.05,0.1L32.33,32.71L32.33,32.71z M32.53,32.81l-0.2,0.15v-0.25
			L32.53,32.81L32.53,32.81z M33.48,32.08l-0.95,0.73l-0.15-0.19l0.95-0.73l0.2,0.1L33.48,32.08L33.48,32.08z M33.33,31.88l0.2-0.15
			v0.25L33.33,31.88L33.33,31.88z M33.28,32.71v-0.73h0.25v0.73l-0.05,0.1L33.28,32.71L33.28,32.71z M33.48,32.81l-0.2,0.15v-0.25
			L33.48,32.81L33.48,32.81z M34.42,32.07l-0.95,0.74l-0.15-0.19l0.95-0.74l0.2,0.1L34.42,32.07L34.42,32.07z M34.27,31.88l0.2-0.15
			v0.25L34.27,31.88L34.27,31.88z M34.22,32.71v-0.74h0.25v0.74l-0.05,0.1L34.22,32.71L34.22,32.71z M34.42,32.81l-0.2,0.15v-0.25
			L34.42,32.81L34.42,32.81z M35.37,32.08l-0.95,0.73l-0.15-0.19l0.95-0.73l0.2,0.1L35.37,32.08L35.37,32.08z M35.22,31.88l0.2-0.15
			v0.25L35.22,31.88L35.22,31.88z M35.17,32.7v-0.72h0.25v0.72l-0.05,0.1L35.17,32.7L35.17,32.7z M35.37,32.8l-0.2,0.15V32.7
			L35.37,32.8L35.37,32.8z M36.32,32.08l-0.95,0.72l-0.15-0.2l0.95-0.72l0.2,0.1L36.32,32.08L36.32,32.08z M36.17,31.88l0.2-0.15
			v0.25L36.17,31.88L36.17,31.88z M36.12,32.71v-0.73h0.25v0.73l-0.05,0.1L36.12,32.71L36.12,32.71z M36.32,32.81l-0.2,0.15v-0.25
			L36.32,32.81L36.32,32.81z M37.27,32.08l-0.95,0.72l-0.15-0.19l0.95-0.72l0.2,0.1L37.27,32.08L37.27,32.08z M37.12,31.89l0.2-0.15
			v0.25L37.12,31.89L37.12,31.89z M37.07,32.7v-0.72h0.25v0.72l-0.05,0.1L37.07,32.7L37.07,32.7z M37.27,32.8l-0.2,0.15V32.7
			L37.27,32.8L37.27,32.8z M38.21,32.08l-0.95,0.72l-0.15-0.19l0.95-0.72l0.2,0.1L38.21,32.08L38.21,32.08z M38.06,31.88l0.2-0.15
			v0.25L38.06,31.88L38.06,31.88z M38.01,32.71v-0.73h0.25v0.73l-0.05,0.1L38.01,32.71L38.01,32.71z M38.21,32.81l-0.2,0.15v-0.25
			L38.21,32.81L38.21,32.81z M39.15,32.08l-0.94,0.72l-0.15-0.19L39,31.89l0.2,0.1L39.15,32.08L39.15,32.08z M39,31.89l0.2-0.15
			v0.25L39,31.89L39,31.89z M38.95,32.71v-0.72h0.25v0.72l-0.05,0.1L38.95,32.71L38.95,32.71z M39.15,32.81l-0.2,0.15v-0.25
			L39.15,32.81L39.15,32.81z M40.11,32.07l-0.96,0.74L39,32.61l0.96-0.74l0.2,0.1L40.11,32.07L40.11,32.07z M39.96,31.88l0.2-0.15
			v0.25L39.96,31.88L39.96,31.88z M39.91,32.71v-0.74h0.25v0.74l-0.05,0.1L39.91,32.71L39.91,32.71z M40.11,32.81l-0.2,0.15v-0.25
			L40.11,32.81L40.11,32.81z M41.06,32.08l-0.95,0.72l-0.15-0.19l0.95-0.72l0.2,0.1L41.06,32.08L41.06,32.08z M40.91,31.89l0.2-0.15
			v0.25L40.91,31.89L40.91,31.89z M40.86,33.06v-1.07h0.25v1.07l-0.12,0.12L40.86,33.06L40.86,33.06z M41.1,33.06v0.12h-0.12
			L41.1,33.06L41.1,33.06z M29.64,32.94h11.34v0.25H29.64l-0.12-0.12L29.64,32.94L29.64,32.94z M29.64,33.18h-0.12v-0.12
			L29.64,33.18z"/>
	</g>
	<path class="st1" d="M53.68,29.35v-1.24l0.29-0.29l-0.29,0.03v-0.54l1.11-0.1l0.05,0.63l-0.99,0.95l1.06-0.09l0.05,0.54
		L53.68,29.35L53.68,29.35z M53.68,26.41v-0.69l0.31-0.18l-0.31-0.06v-0.55l0.84,0.23l0.11,0.62L53.68,26.41L53.68,26.41z
		 M53.68,23.72V22.3c0.17,0.16,0.31,0.39,0.39,0.67c0.08,0.25,0.1,0.56,0.06,0.82L53.68,23.72L53.68,23.72z M55.55,26.11l0.42-0.41
		l-0.81-0.69l-0.27,0.26L55.55,26.11z M53.68,22.3v1.42l-0.02,0c0.02-0.26,0.01-0.45-0.04-0.61c-0.1-0.33-0.35-0.51-0.69-0.41
		c-0.38,0.12-0.53,0.33-0.43,0.66c0.07,0.24,0.18,0.44,0.4,0.72l-0.38,0.29c-0.08-0.09-0.16-0.2-0.24-0.33v-1.72
		c0.12-0.1,0.26-0.18,0.45-0.23C53.1,21.97,53.43,22.06,53.68,22.3L53.68,22.3z M53.68,24.94v0.55l-0.31-0.06l0.08,0.44l0.23-0.13
		v0.69l-0.84,0.56l-0.16-0.63l0.41-0.26l-0.13-0.74l-0.48-0.12l-0.05-0.63L53.68,24.94L53.68,24.94z M53.68,27.31v0.54l-0.83,0.07
		l-0.05-0.54L53.68,27.31L53.68,27.31z M53.68,28.11v1.24l-0.7,0.06l-0.05-0.55L53.68,28.11L53.68,28.11z M52.27,21.71v-0.84
		l0.31-0.29l-0.31,0.01v-0.53l0.74,0.03l0.24,0.58L52.27,21.71L52.27,21.71z M52.27,18.69v-0.21l0.09,0.16L52.27,18.69z
		 M52.27,18.48v0.21L50.8,19.5v-0.72l1.25-0.69L52.27,18.48L52.27,18.48z M52.27,20.06v0.53l-0.31,0.01L52.13,21l0.14-0.13v0.84
		l-0.49,0.51l-0.3-0.58l0.34-0.35l-0.29-0.69l-0.49-0.01l-0.19-0.6L52.27,20.06L52.27,20.06z M52.27,22.32v1.72
		c-0.1-0.17-0.2-0.36-0.25-0.54C51.87,23.01,51.94,22.59,52.27,22.32L52.27,22.32z M50.8,16.96v-0.72l0.18-0.1l0.31,0.54L50.8,16.96
		z M50.8,16.24v0.72l-0.84,0.48l0.5,0.86l-0.4,0.23l-0.81-1.4L50.8,16.24L50.8,16.24z M50.8,18.78v0.72l-0.19,0.1l-0.3-0.55
		L50.8,18.78L50.8,18.78z M48.55,16v-0.55c0.17,0.15,0.38,0.09,0.61-0.09l0.82-0.67l0.39,0.49l-0.82,0.66
		C49.23,16.1,48.87,16.14,48.55,16L48.55,16z M48.55,14.84c0.03-0.03,0.07-0.07,0.1-0.1l0.83-0.67l-0.39-0.49l-0.54,0.44V14.84
		L48.55,14.84z M48.55,12.21v-0.68c0.1,0.07,0.2,0.15,0.3,0.24c0.17,0.17,0.31,0.42,0.39,0.67l-0.47,0.17
		C48.69,12.43,48.62,12.3,48.55,12.21z M48.55,11.53v0.68c-0.02-0.03-0.04-0.05-0.07-0.08c-0.25-0.25-0.73-0.42-1.27,0.12
		c-0.59,0.59-0.51,0.96-0.22,1.25c0.21,0.21,0.33,0.26,0.65,0.4l-0.22,0.46c-0.25-0.09-0.57-0.25-0.81-0.5
		c-0.58-0.58-0.63-1.29,0.13-2.06C47.3,11.25,47.97,11.15,48.55,11.53L48.55,11.53z M48.55,14.02l-0.28,0.23
		c-0.46,0.37-0.56,0.9-0.13,1.42c0.12,0.15,0.26,0.26,0.41,0.33v-0.55c-0.02-0.02-0.04-0.04-0.06-0.06
		c-0.15-0.18-0.1-0.38,0.06-0.55V14.02L48.55,14.02z M43.16,10.7v-0.1l1.18-1.5l1.26,0.99l-0.26,0.34l-0.77-0.6l-0.2,0.26l0.66,0.52
		l-0.26,0.34l-0.66-0.52l-0.23,0.29l0.87,0.68l-0.26,0.34L43.16,10.7L43.16,10.7z M43.16,9.14c0.06-0.19,0.07-0.37,0-0.56V9.14z
		 M43.16,8.58v0.56c-0.02,0.06-0.05,0.13-0.08,0.19c-0.22,0.39-0.56,0.63-1.04,0.52V9.36c0.21,0,0.36-0.15,0.47-0.35
		c0.13-0.23,0.17-0.49-0.25-0.73l-0.22-0.12V7.65L42.5,7.9C42.86,8.1,43.07,8.34,43.16,8.58L43.16,8.58z M43.16,10.6v0.1l-0.05-0.04
		L43.16,10.6z M42.03,7.65v0.51l-0.02-0.01l-0.54,0.98l0.28,0.15c0.1,0.06,0.2,0.08,0.28,0.08v0.49c-0.13-0.03-0.27-0.08-0.43-0.17
		l-0.89-0.49l0.96-1.74L42.03,7.65L42.03,7.65z M38.23,8V7.51c0.23-0.01,0.44-0.16,0.52-0.37c0.13-0.36-0.03-0.7-0.33-0.81
		C38.36,6.31,38.3,6.3,38.23,6.3V5.82c0.12,0.02,0.24,0.05,0.37,0.09c0.62,0.22,1.03,0.74,0.78,1.41C39.19,7.86,38.73,8.06,38.23,8z
		 M38.23,5.82V6.3c-0.23,0.01-0.44,0.16-0.51,0.36c-0.14,0.39,0,0.7,0.32,0.82c0.06,0.02,0.12,0.03,0.18,0.03V8
		c-0.12-0.01-0.24-0.04-0.36-0.09c-0.62-0.23-1.02-0.74-0.78-1.42C37.3,5.93,37.75,5.75,38.23,5.82L38.23,5.82z M28.73,6.32V5.86
		c0.01,0,0.01,0,0.02,0c0.31,0,0.54-0.28,0.54-0.56c0-0.37-0.25-0.63-0.56-0.65V4.19c0.66,0,1.22,0.35,1.22,1.06
		C29.95,5.95,29.38,6.32,28.73,6.32L28.73,6.32z M28.73,3.72V3.14L29,2.92l0.33,0.48L28.73,3.72L28.73,3.72z M32.45,6.28l0.07-0.97
		l-0.59-0.04l-0.05,0.67c-0.09,0.01-0.24,0.01-0.35,0.01c-0.34-0.02-0.49-0.28-0.46-0.67c0.02-0.36,0.28-0.52,0.63-0.5
		c0.17,0.01,0.34,0.06,0.58,0.18l0.24-0.42c-0.22-0.13-0.53-0.22-0.78-0.24c-0.71-0.05-1.26,0.28-1.31,0.95
		c-0.05,0.72,0.38,1.11,1.07,1.16C31.82,6.44,32.23,6.36,32.45,6.28L32.45,6.28z M33.77,6.67l0.31-1.96l-0.62-0.1l-0.31,1.96
		L33.77,6.67L33.77,6.67z M36.47,7.2l-0.04-0.48c-0.35,0.03-0.59,0.01-0.82-0.06c-0.33-0.09-0.43-0.34-0.32-0.72
		c0.1-0.34,0.38-0.46,0.72-0.36c0.16,0.05,0.32,0.13,0.53,0.3l0.32-0.36c-0.19-0.18-0.47-0.32-0.72-0.39
		c-0.69-0.2-1.29,0.01-1.48,0.66c-0.2,0.7,0.14,1.17,0.81,1.36C35.79,7.23,36.2,7.25,36.47,7.2z M28.73,3.14v0.58l-0.34,0.18
		L28.18,3.6L28.73,3.14L28.73,3.14z M28.73,4.19v0.46c-0.01,0-0.02,0-0.03,0c-0.31,0-0.54,0.28-0.54,0.54
		c0,0.41,0.23,0.65,0.56,0.66v0.46l0,0c-0.66,0-1.22-0.34-1.22-1.07C27.51,4.51,28.07,4.19,28.73,4.19L28.73,4.19L28.73,4.19z
		 M23.55,7.05V6.57c0.05,0,0.1-0.01,0.16-0.02c0.3-0.07,0.47-0.4,0.4-0.67c-0.07-0.31-0.3-0.5-0.56-0.51V4.9
		c0.55-0.05,1.05,0.19,1.19,0.8c0.16,0.68-0.31,1.16-0.95,1.31C23.71,7.03,23.63,7.04,23.55,7.05L23.55,7.05z M27.19,6.35
		l-0.06-0.46l-0.99,0.12L25.96,4.5l-0.62,0.08l0.24,1.97L27.19,6.35z M23.55,4.9v0.48c-0.05,0-0.11,0-0.16,0.01
		c-0.3,0.07-0.46,0.39-0.4,0.65c0.08,0.34,0.29,0.53,0.56,0.53v0.47c-0.55,0.05-1.04-0.19-1.18-0.8c-0.17-0.72,0.31-1.16,0.95-1.31
		C23.39,4.92,23.47,4.91,23.55,4.9L23.55,4.9z M19.37,8.31V8.22l0.04,0.04C19.4,8.27,19.39,8.29,19.37,8.31L19.37,8.31z M19.37,6.4
		V6.28l0.54-0.22l1.2,0.66l-0.4-0.99l0.5-0.2l0.75,1.85l-0.51,0.21L20.16,6.9l0.42,1.04l-0.5,0.2L19.37,6.4z M19.37,6.28V6.4
		L19.33,6.3L19.37,6.28L19.37,6.28z M19.37,8.22v0.09c-0.17,0.21-0.45,0.45-0.71,0.59c-0.61,0.32-1.18,0.23-1.52-0.41l-0.01-0.01
		V7.55c0.12-0.22,0.34-0.41,0.61-0.56c0.23-0.12,0.53-0.21,0.79-0.21l0.02,0.48c-0.26,0.03-0.44,0.08-0.59,0.16
		c-0.31,0.16-0.43,0.44-0.27,0.76c0.18,0.35,0.43,0.46,0.73,0.3c0.22-0.12,0.4-0.26,0.63-0.53L19.37,8.22L19.37,8.22z M17.13,9.71
		V9.43l0.12,0.2L17.13,9.71z M17.13,7.55v0.93C16.96,8.15,16.97,7.82,17.13,7.55L17.13,7.55z M17.13,9.43l-0.11-0.17l-0.94,0.59
		l-0.2-0.32l0.71-0.45l-0.23-0.36l-0.71,0.45l-0.17-0.28l0.83-0.52l-0.23-0.36l-1.21,0.75V9.1l0.9,1.44l1.35-0.84V9.43L17.13,9.43z
		 M14.88,11.26v-0.31l0.15,0.19L14.88,11.26z M14.88,8.77V9.1l-0.15-0.24L14.88,8.77L14.88,8.77z M14.88,10.94l-1.32-1.69l0.68-0.53
		l-0.32-0.41l-1.85,1.44l0.32,0.41l0.67-0.52l1.47,1.88l0.34-0.27V10.94L14.88,10.94z M11.44,14.23v-0.58
		c0.16,0.01,0.32-0.05,0.45-0.18c0.21-0.22,0.18-0.59-0.02-0.78c-0.13-0.12-0.28-0.19-0.43-0.2V11.9c0.29-0.05,0.59,0.03,0.85,0.29
		c0.5,0.49,0.37,1.15-0.08,1.62C11.98,14.04,11.72,14.19,11.44,14.23z M11.44,11.9v0.59c-0.17-0.01-0.33,0.05-0.45,0.17
		c-0.21,0.22-0.18,0.58,0.02,0.77c0.14,0.14,0.29,0.21,0.43,0.22v0.58c-0.29,0.04-0.58-0.04-0.84-0.3
		c-0.05-0.05-0.09-0.09-0.12-0.14v-1.22c0.06-0.09,0.13-0.17,0.21-0.26C10.9,12.1,11.17,11.94,11.44,11.9L11.44,11.9z M10.47,15.69
		v-0.43l0.21,0.17L10.47,15.69z M10.47,12.58v1.22C10.16,13.41,10.22,12.96,10.47,12.58L10.47,12.58z M10.47,15.26L9.53,14.5
		l0.48-0.6l-0.39-0.32L8.8,14.6v0.8l0.34-0.42l1.15,0.93l0.18-0.23V15.26L10.47,15.26z M8.8,18.22v-0.69c0.04-0.1,0.04-0.19,0-0.27
		v-0.84l0.01,0.01c0.55,0.32,0.65,0.88,0.36,1.38C9.06,17.99,8.93,18.12,8.8,18.22z M8.8,14.6v0.8l-0.13,0.17l-0.39-0.32L8.8,14.6
		L8.8,14.6z M8.8,16.42v0.84c-0.05-0.11-0.15-0.2-0.3-0.29l-0.92-0.53l0.31-0.54L8.8,16.42L8.8,16.42z M8.8,17.52v0.69
		c-0.3,0.2-0.66,0.18-1.01-0.02l-0.32-0.18v-0.72l0.64,0.37c0.25,0.15,0.52,0.16,0.66-0.08C8.78,17.56,8.79,17.54,8.8,17.52
		L8.8,17.52z M7.47,20.2v-0.69l0.6,0.28L7.8,20.35L7.47,20.2z M7.47,17.29v0.72l-0.6-0.34l0.31-0.54L7.47,17.29L7.47,17.29z
		 M7.47,19.51v0.69l-1.01-0.47l-0.32,0.68l-0.16-0.08v-0.76l0.61-1.32l0.46,0.21l-0.32,0.69L7.47,19.51L7.47,19.51z M5.98,26.58
		v-1.7c0.27,0.16,0.34,0.5,0.26,0.97C6.2,26.08,6.11,26.35,5.98,26.58L5.98,26.58z M5.98,23.72v-0.65l0.75,0.23l-0.18,0.6
		L5.98,23.72L5.98,23.72z M5.98,21.71v-0.67l1.33,0.48l-0.21,0.59L5.98,21.71z M5.82,30.34H2.92v0.63h2.91V30.34L5.82,30.34z
		 M5.98,19.57v0.76l-0.29-0.14L5.98,19.57L5.98,19.57z M5.98,21.04v0.67l-0.75-0.27l0.21-0.59L5.98,21.04L5.98,21.04z M5.98,23.07
		v0.65l-0.85-0.26L4.9,24.18l-0.48-0.15l0.63-2.05l0.48,0.15l-0.22,0.73L5.98,23.07L5.98,23.07z M5.98,24.88v1.7
		c-0.04,0.07-0.08,0.13-0.13,0.18l-0.38-0.3c0.19-0.24,0.29-0.48,0.32-0.68c0.03-0.17,0.01-0.33-0.13-0.36
		c-0.22-0.04-0.37,1.11-1.09,0.98c-0.43-0.08-0.5-0.53-0.42-0.98c0.06-0.35,0.16-0.58,0.3-0.79l0.36,0.28
		c-0.12,0.16-0.2,0.36-0.24,0.59c-0.03,0.17,0.03,0.25,0.11,0.27c0.21,0.04,0.41-1.09,1.06-0.98C5.83,24.81,5.91,24.84,5.98,24.88
		L5.98,24.88z M5.91,27.43l-1.98-0.17l-0.05,0.54l1.06,0.09L3.8,28.65l-0.05,0.63l1.98,0.17l0.05-0.54l-1.12-0.1l1.2-0.84
		L5.91,27.43z"/>
	<path class="st1" d="M48.98,46.36v-0.5c0.16,0.02,0.3-0.05,0.41-0.19c0.16-0.2,0.09-0.5-0.09-0.65c-0.1-0.08-0.21-0.12-0.32-0.13
		v-0.51c0.21-0.03,0.42,0.02,0.63,0.19c0.46,0.36,0.41,0.92,0.07,1.35C49.49,46.16,49.24,46.33,48.98,46.36z M48.98,44.38v0.51
		c-0.16-0.01-0.31,0.06-0.41,0.18c-0.16,0.2-0.09,0.5,0.08,0.63c0.11,0.09,0.22,0.13,0.33,0.14v0.5c-0.2,0.03-0.42-0.03-0.62-0.19
		c-0.02-0.02-0.04-0.03-0.06-0.05v-1.3C48.48,44.58,48.72,44.42,48.98,44.38L48.98,44.38z M48.3,47.51V46.5
		c0.04,0.02,0.08,0.04,0.11,0.07C48.68,46.83,48.62,47.15,48.3,47.51z M48.3,44.81v1.3c-0.42-0.38-0.33-0.88-0.01-1.29L48.3,44.81
		L48.3,44.81z M48.3,46.5c-0.4-0.18-0.95,0.39-1.07,0.27c-0.05-0.05-0.06-0.13,0.04-0.24c0.13-0.14,0.28-0.24,0.44-0.3l-0.13-0.36
		c-0.18,0.07-0.34,0.18-0.52,0.36v1.04c0.42,0.11,0.89-0.41,1.01-0.3c0.08,0.08,0.02,0.2-0.07,0.31c-0.11,0.12-0.29,0.24-0.53,0.32
		l0.13,0.38c0.25-0.07,0.51-0.27,0.69-0.46c0.01-0.01,0.02-0.02,0.02-0.03V46.5L48.3,46.5z M47.05,48.65v-0.5l0.09-0.09l0.25,0.26
		L47.05,48.65z M47.05,46.24v1.04c-0.07-0.02-0.14-0.05-0.2-0.11c-0.26-0.25-0.11-0.6,0.15-0.88
		C47.02,46.27,47.04,46.26,47.05,46.24L47.05,46.24z M47.05,48.15l-0.57,0.55l-0.22-0.22l0.51-0.49l-0.25-0.26l-0.51,0.49l-0.19-0.2
		l0.59-0.57l-0.25-0.26l-0.59,0.57v0.74l0.78,0.81l0.7-0.68V48.15L47.05,48.15z M45.57,49.97v-0.43l0.37,0.07L45.57,49.97z
		 M45.57,47.77v0.74l-0.37-0.38L45.57,47.77L45.57,47.77z M45.57,49.55v0.43l-0.05,0.05l-0.71-0.18l-0.11,0.09l0.35,0.43l-0.41,0.33
		l-0.18-0.23v-0.83l0.03,0.04l0.1-0.08c0.15-0.12,0.09-0.23,0.04-0.3c-0.04-0.05-0.1-0.09-0.17-0.09v-0.42
		c0.22-0.07,0.43-0.02,0.57,0.16c0.15,0.19,0.14,0.37,0.08,0.52L45.57,49.55z M44.47,48.79v0.42c-0.04,0-0.08,0.02-0.13,0.06
		l-0.1,0.08l0.23,0.29v0.83l-0.61-0.75V49.2l0.29-0.23C44.25,48.88,44.36,48.82,44.47,48.79L44.47,48.79z M43.86,51.23v-0.69
		l0.25,0.39C44.05,51.02,43.96,51.13,43.86,51.23z M43.86,49.2v0.51l-0.25-0.31L43.86,49.2L43.86,49.2z M43.86,50.54v0.69
		c-0.1,0.1-0.21,0.19-0.32,0.27c-0.49,0.32-0.97,0.27-1.3-0.24c-0.06-0.09-0.1-0.17-0.12-0.26v-0.4c0.07-0.24,0.25-0.46,0.51-0.63
		c0.18-0.12,0.42-0.21,0.64-0.23l0.05,0.4c-0.22,0.05-0.36,0.1-0.48,0.18c-0.24,0.16-0.33,0.39-0.17,0.65
		c0.18,0.27,0.4,0.37,0.64,0.22c0.08-0.05,0.18-0.13,0.23-0.18l-0.3-0.47l0.42-0.27L43.86,50.54L43.86,50.54z M42.12,52.05
		c0.03-0.13,0.04-0.26,0-0.41V52.05z M42.12,50.61V51C42.09,50.87,42.09,50.74,42.12,50.61L42.12,50.61z M42.12,51.64
		c-0.02-0.07-0.05-0.14-0.08-0.21c-0.2-0.38-0.54-0.5-0.9-0.44v0.43c0.17,0.01,0.33,0.11,0.43,0.3c0.11,0.2,0.04,0.5-0.18,0.63
		c-0.08,0.04-0.17,0.07-0.25,0.06v0.43c0.14-0.02,0.28-0.07,0.42-0.14c0.28-0.15,0.49-0.38,0.56-0.65V51.64z M41.14,50.99v0.43
		c-0.09-0.01-0.17,0.01-0.25,0.06c-0.23,0.12-0.29,0.42-0.18,0.61c0.11,0.21,0.27,0.31,0.44,0.32v0.43
		c-0.34,0.05-0.65-0.06-0.86-0.39v-0.94c0.11-0.15,0.26-0.28,0.45-0.37C40.86,51.06,41,51.01,41.14,50.99L41.14,50.99z M40.28,53.23
		v-0.15l0.15,0.07L40.28,53.23z M40.28,51.51v0.94c-0.01-0.02-0.02-0.04-0.03-0.06C40.07,52.05,40.11,51.75,40.28,51.51L40.28,51.51
		z M40.28,53.08l-0.61-0.27c0.09-0.13,0.15-0.3,0.04-0.52c-0.12-0.25-0.36-0.34-0.66-0.27v0.38c0.1-0.01,0.16,0.06,0.19,0.13
		c0.04,0.08,0.07,0.2-0.11,0.28l-0.08,0.04v0.97l0.33-0.16l-0.24-0.51l0.13-0.06l0.65,0.35l0.36-0.21V53.08z M39.05,52.01v0.38
		c-0.03,0-0.06,0.01-0.1,0.03l-0.12,0.06l0.18,0.38l0.04-0.02v0.97l-0.14,0.07l-0.7-1.5l0.62-0.29
		C38.91,52.05,38.98,52.03,39.05,52.01L39.05,52.01z M37.22,54.45V53.1l0.04-0.01c0.26-0.09,0.33-0.27,0.25-0.51
		c-0.06-0.16-0.15-0.25-0.29-0.24v-0.42c0.38-0.05,0.67,0.11,0.8,0.46c0.16,0.47-0.09,0.9-0.61,1.08l-0.14,0.05l0.28,0.83
		L37.22,54.45z M37.22,51.92v0.42c-0.05,0-0.1,0.01-0.16,0.03l-0.16,0.05l0.24,0.7l0.08-0.03v1.35l-0.16,0.05l-0.79-2.29l0.65-0.22
		C37.03,51.96,37.13,51.93,37.22,51.92L37.22,51.92z M33.92,55.27V55.2l0.04,0.06L33.92,55.27L33.92,55.27z M33.92,53.74l0.37,1.47
		l1.31-0.33l-0.09-0.37l-0.8,0.2l-0.31-1.24l-0.47,0.12V53.74z M33.92,53.59v0.15l-0.04-0.14L33.92,53.59L33.92,53.59z M33.92,55.2
		l-0.9-1.47l-0.16,0.02v0.61l0.18,0.35l-0.18,0.03v0.33l0.35-0.05l0.21,0.35l0.5-0.11V55.2z M32.86,53.76v0.61l-0.06-0.11
		l-0.12,0.51l0.18-0.03v0.33l-0.27,0.04l-0.11,0.39l-0.53,0.03l0.55-1.72L32.86,53.76L32.86,53.76z M29.94,55.29v-0.33l0.18-0.01
		l-0.18-0.46v-0.51l0.26-0.01l0.77,1.61l-0.54,0.06l-0.17-0.37L29.94,55.29z M29.94,53.99v0.51l-0.01-0.02l-0.18,0.49l0.18-0.01
		v0.33l-0.3,0.01l-0.15,0.38l-0.53-0.03L29.68,54L29.94,53.99L29.94,53.99z M20.17,54v-1.38l0.14-0.35l1.24,0.5l-0.13,0.33
		l-0.76-0.31l-0.1,0.25l0.65,0.26l-0.13,0.33l-0.65-0.26l-0.12,0.29l0.85,0.34l-0.13,0.33L20.17,54L20.17,54z M20.17,51.87V51.4
		l0.48,0.22l-0.18,0.39L20.17,51.87L20.17,51.87z M21.72,52.06l-0.1-0.48l-0.85,0.27l0.07,0.3L21.72,52.06L21.72,52.06z
		 M23.13,54.83l-0.02-0.4c-0.3,0.02-0.49,0-0.69-0.06c-0.27-0.08-0.35-0.29-0.25-0.61c0.09-0.29,0.33-0.38,0.6-0.29
		c0.14,0.04,0.27,0.12,0.44,0.25l0.27-0.3c-0.16-0.15-0.39-0.28-0.59-0.34c-0.57-0.17-1.08-0.01-1.24,0.53
		c-0.18,0.58,0.1,0.97,0.65,1.14C22.57,54.84,22.91,54.86,23.13,54.83L23.13,54.83z M25.26,55.32l0.29-1.64l-0.44-0.08l-0.15,0.87
		l-0.55-1l-0.52-0.09l-0.29,1.64l0.44,0.08l0.16-0.92l0.61,1.06L25.26,55.32L25.26,55.32z M26.52,55.51l0.23-1.64l-0.52-0.07
		l-0.23,1.64L26.52,55.51L26.52,55.51z M28.85,55.6l-0.11-0.38c-0.29,0.08-0.48,0.1-0.68,0.08c-0.28-0.02-0.4-0.21-0.37-0.54
		c0.03-0.3,0.24-0.43,0.53-0.41c0.14,0.01,0.29,0.06,0.48,0.16l0.2-0.35c-0.18-0.11-0.43-0.19-0.65-0.21
		c-0.59-0.05-1.06,0.22-1.11,0.78c-0.05,0.6,0.3,0.93,0.88,0.98C28.3,55.73,28.64,55.68,28.85,55.6z M20.17,51.4v0.48l-0.36-0.17
		l-0.84,1.8l-0.47-0.22l0.84-1.8l-0.64-0.3l0.18-0.39L20.17,51.4L20.17,51.4z M20.17,52.61l-0.48,1.19L20.17,54V52.61L20.17,52.61z
		 M16.64,51.91v-0.38l0.11,0.07l0.09-0.51l-0.21,0.16v-0.53l0.25-0.17l0.45,0.26l-0.2,1.78l-0.49-0.24l0.05-0.4L16.64,51.91z
		 M16.64,50.72v0.53l-0.21,0.16l0.21,0.12v0.38l-0.48-0.28l-0.33,0.24l-0.4-0.28v-0.04L16.64,50.72L16.64,50.72z M15.43,49.65v-0.06
		l0.03,0.02L15.43,49.65z M15.43,49.59v0.06l-0.72,0.99l0.67,0.49l-0.22,0.31l-1.09-0.79l0.97-1.34L15.43,49.59L15.43,49.59z
		 M15.43,51.55v0.04l-0.03-0.02L15.43,51.55L15.43,51.55z M11.66,48.66v-0.5l0.84-0.97l0.4,0.34l-0.04,1.14l0.58-0.67l0.34,0.3
		l-1.09,1.25l-0.35-0.3l0.02-1.22l-0.62,0.71L11.66,48.66L11.66,48.66z M11.66,47.44c0.36-0.37,0.29-0.84,0-1.21V47.44z
		 M10.63,44.52c0.03,0.03,0.06,0.06,0.09,0.1c0.08,0.1,0.12,0.22,0.19,0.43l0.4-0.1c-0.04-0.21-0.13-0.44-0.25-0.59
		c-0.13-0.16-0.27-0.29-0.43-0.37V44.52L10.63,44.52z M11.66,46.23v1.21c-0.01,0.01-0.02,0.02-0.04,0.03
		c-0.31,0.29-0.67,0.3-0.99,0.13v-0.47c0.18,0.13,0.44,0.1,0.59-0.04c0.23-0.22,0.24-0.53,0.06-0.73c-0.17-0.19-0.48-0.17-0.64-0.02
		l-0.01,0.01v-0.6c0.34-0.09,0.68,0.08,0.94,0.36C11.61,46.16,11.63,46.19,11.66,46.23L11.66,46.23z M11.66,48.16v0.5l-0.25-0.21
		L11.66,48.16z M9.62,46.35L9.85,46c-0.25-0.15-0.35-0.2-0.5-0.4c-0.21-0.27-0.24-0.58,0.31-1.01c0.43-0.34,0.77-0.24,0.98-0.06
		v-0.53c-0.41-0.22-0.88-0.16-1.32,0.18C8.6,44.72,8.58,45.32,9,45.86C9.18,46.08,9.42,46.25,9.62,46.35L9.62,46.35z M10.63,45.76
		v0.6c-0.24,0.24-0.25,0.51-0.06,0.72c0.02,0.02,0.04,0.04,0.06,0.05v0.47c-0.13-0.06-0.25-0.16-0.35-0.27
		c-0.38-0.4-0.48-0.94-0.04-1.35C10.37,45.87,10.5,45.8,10.63,45.76z"/>
	<g>
		<path class="st11" d="M55,1.82c0.44,0,0.86,0.11,1.28,0.34c0.42,0.22,0.74,0.54,0.97,0.96c0.23,0.42,0.35,0.85,0.35,1.3
			c0,0.45-0.11,0.88-0.34,1.29c-0.23,0.41-0.55,0.73-0.96,0.96C55.88,6.9,55.45,7.01,55,7.01c-0.45,0-0.88-0.11-1.29-0.34
			c-0.41-0.23-0.73-0.55-0.96-0.96c-0.23-0.41-0.34-0.84-0.34-1.29c0-0.45,0.12-0.89,0.35-1.3c0.23-0.42,0.56-0.74,0.97-0.96
			C54.14,1.93,54.57,1.82,55,1.82z M55,2.25c-0.36,0-0.72,0.09-1.06,0.28c-0.35,0.19-0.62,0.45-0.81,0.8
			c-0.2,0.35-0.29,0.71-0.29,1.09c0,0.37,0.1,0.73,0.29,1.08c0.19,0.34,0.46,0.61,0.8,0.8c0.34,0.19,0.7,0.29,1.08,0.29
			c0.37,0,0.73-0.1,1.08-0.29c0.34-0.19,0.61-0.46,0.8-0.8c0.19-0.34,0.29-0.7,0.29-1.08c0-0.38-0.1-0.74-0.29-1.09
			c-0.19-0.35-0.46-0.61-0.81-0.8C55.72,2.34,55.36,2.25,55,2.25z M53.86,5.85V3.06h0.96c0.33,0,0.57,0.03,0.71,0.08
			c0.15,0.05,0.26,0.14,0.35,0.27c0.09,0.13,0.13,0.26,0.13,0.41c0,0.2-0.07,0.38-0.22,0.53c-0.15,0.15-0.34,0.24-0.58,0.25
			c0.1,0.04,0.18,0.09,0.24,0.15c0.11,0.11,0.25,0.29,0.41,0.55l0.34,0.55h-0.55l-0.25-0.44c-0.2-0.35-0.35-0.56-0.47-0.65
			c-0.08-0.06-0.2-0.1-0.36-0.1h-0.26v1.19H53.86z M54.31,4.28h0.55c0.26,0,0.44-0.04,0.54-0.12c0.1-0.08,0.14-0.18,0.14-0.31
			c0-0.08-0.02-0.16-0.07-0.22c-0.05-0.07-0.11-0.11-0.19-0.15c-0.08-0.03-0.23-0.05-0.45-0.05h-0.51V4.28z"/>
	</g>
</g>
</svg>
